<svg xmlns="http://www.w3.org/2000/svg" viewBox="0 0 500 500"><g id="freepik--Plant--inject-379"><g id="freepik--Plants--inject-379"><g id="freepik--plants--inject-379"><path d="M402.36,333.73a.57.57,0,0,1-.22,0L396,331.36a.53.53,0,0,1-.33-.37c0-.15-3.05-15.74,12.16-34.23,10.85-13.2,25.61-20.73,33.58-17.14,3.27,1.47,5.28,4,5.53,6.86.29,3.2-1.57,6.41-5,8.59-.76.48-1.91,1.13-3.38,1.94-9.08,5-30.34,16.8-35.74,36.34a.55.55,0,0,1-.29.33A.74.74,0,0,1,402.36,333.73Zm-5.61-3.18,5.23,2c5.76-19.6,27-31.34,36.07-36.39,1.45-.8,2.6-1.44,3.32-1.9,3.07-2,4.75-4.85,4.5-7.71-.23-2.56-2-4.71-4.92-6-7.52-3.38-21.66,4-32.2,16.84C394.92,314.18,396.44,328.47,396.75,330.55Z" style="fill:#BA68C8"></path><path d="M398.89,332.41h-.08a.51.51,0,0,1-.47-.56c3.46-23.21,25.13-43.07,38-46a.56.56,0,0,1,.67.36.49.49,0,0,1-.4.61C423.89,289.7,402.72,310,399.44,332A.55.55,0,0,1,398.89,332.41Z" style="fill:#BA68C8"></path><path d="M396.25,331.4a.69.69,0,0,1-.24,0l-4.11-1.75a.52.52,0,0,1-.31-.38c0-.23-3.89-23.38,6.77-52.4,5.43-14.79,17.82-28.25,29.46-32,5.59-1.81,10.73-1.43,15.26,1.12,2.56,1.45,4,3.26,4.31,5.38.82,5.88-7.14,13.38-15.56,21.32-5.9,5.56-12,11.3-15.24,16.67a.59.59,0,0,1-.75.2.47.47,0,0,1-.22-.68c3.31-5.48,9.46-11.27,15.4-16.87,8.24-7.77,16-15.1,15.27-20.51-.26-1.84-1.5-3.37-3.8-4.66-4.23-2.39-9-2.73-14.29-1-11.35,3.66-23.45,16.86-28.78,31.38-10,27.15-7.16,49.08-6.78,51.68l3.85,1.64a.49.49,0,0,1,.26.67A.57.57,0,0,1,396.25,331.4Z" style="fill:#BA68C8"></path><path d="M397.57,317.17h0a.52.52,0,0,1-.51-.53c2.83-36.25,30-61.89,37.43-65.91a.6.6,0,0,1,.76.17.46.46,0,0,1-.18.68c-7.33,4-34.1,29.27-36.9,65.13A.54.54,0,0,1,397.57,317.17Z" style="fill:#BA68C8"></path></g><g id="freepik--plants--inject-379" style="opacity:0.30000000000000004"><path d="M402.36,333.73a.57.57,0,0,1-.22,0L396,331.36a.53.53,0,0,1-.33-.37c0-.15-3.05-15.74,12.16-34.23,10.85-13.2,25.61-20.73,33.58-17.14,3.27,1.47,5.28,4,5.53,6.86.29,3.2-1.57,6.41-5,8.59-.76.48-1.91,1.13-3.38,1.94-9.08,5-30.34,16.8-35.74,36.34a.55.55,0,0,1-.29.33A.74.74,0,0,1,402.36,333.73Zm-5.61-3.18,5.23,2c5.76-19.6,27-31.34,36.07-36.39,1.45-.8,2.6-1.44,3.32-1.9,3.07-2,4.75-4.85,4.5-7.71-.23-2.56-2-4.71-4.92-6-7.52-3.38-21.66,4-32.2,16.84C394.92,314.18,396.44,328.47,396.75,330.55Z" style="fill:#fff"></path><path d="M398.89,332.41h-.08a.51.51,0,0,1-.47-.56c3.46-23.21,25.13-43.07,38-46a.56.56,0,0,1,.67.36.49.49,0,0,1-.4.61C423.89,289.7,402.72,310,399.44,332A.55.55,0,0,1,398.89,332.41Z" style="fill:#fff"></path><path d="M396.25,331.4a.69.69,0,0,1-.24,0l-4.11-1.75a.52.52,0,0,1-.31-.38c0-.23-3.89-23.38,6.77-52.4,5.43-14.79,17.82-28.25,29.46-32,5.59-1.81,10.73-1.43,15.26,1.12,2.56,1.45,4,3.26,4.31,5.38.82,5.88-7.14,13.38-15.56,21.32-5.9,5.56-12,11.3-15.24,16.67a.59.59,0,0,1-.75.2.47.47,0,0,1-.22-.68c3.31-5.48,9.46-11.27,15.4-16.87,8.24-7.77,16-15.1,15.27-20.51-.26-1.84-1.5-3.37-3.8-4.66-4.23-2.39-9-2.73-14.29-1-11.35,3.66-23.45,16.86-28.78,31.38-10,27.15-7.16,49.08-6.78,51.68l3.85,1.64a.49.49,0,0,1,.26.67A.57.57,0,0,1,396.25,331.4Z" style="fill:#fff"></path><path d="M397.57,317.17h0a.52.52,0,0,1-.51-.53c2.83-36.25,30-61.89,37.43-65.91a.6.6,0,0,1,.76.17.46.46,0,0,1-.18.68c-7.33,4-34.1,29.27-36.9,65.13A.54.54,0,0,1,397.57,317.17Z" style="fill:#fff"></path></g></g></g><g id="freepik--Hearts--inject-379"><g id="freepik--hearts--inject-379"><path d="M408.08,85.79c5.86-1.89,11.26,3.24,11,11.23,3.15-7.35,10.22-9.69,14.72-5.49s.3,18.56-19.24,25.69C399.89,102.45,402.21,87.67,408.08,85.79Z" style="fill:#BA68C8"></path><path d="M405.78,46c3.67-2.86,8.84-.62,10.71,5.12.32-6,4.73-9.53,9-7.72s5,13.1-7,23.24C404.3,60,402.1,48.88,405.78,46Z" style="fill:#BA68C8"></path><path d="M405.78,46c3.67-2.86,8.84-.62,10.71,5.12.32-6,4.73-9.53,9-7.72s5,13.1-7,23.24C404.3,60,402.1,48.88,405.78,46Z" style="fill:#fff;opacity:0.30000000000000004"></path><path d="M443.54,64.08c3.78-.53,6.53,3.16,5.51,8,2.69-4.15,7.25-4.83,9.55-1.79s-1.77,11.34-14.43,13.63C436.8,73.37,439.77,64.61,443.54,64.08Z" style="fill:#BA68C8"></path><path d="M443.54,64.08c3.78-.53,6.53,3.16,5.51,8,2.69-4.15,7.25-4.83,9.55-1.79s-1.77,11.34-14.43,13.63C436.8,73.37,439.77,64.61,443.54,64.08Z" style="fill:#fff;opacity:0.6000000000000001"></path></g></g><g id="freepik--Gifts--inject-379"><g id="freepik--Envelope--inject-379"><path d="M216.2,365.43a.15.15,0,0,0,0-.07s0,0,0,0a.13.13,0,0,0,0-.06.13.13,0,0,0,0-.08.42.42,0,0,0,0-.1,1,1,0,0,0-.32-.36h0l-.05,0,0,0h0l-43.33-25-.09-.05a4.78,4.78,0,0,0-2.52-.59h0a4.78,4.78,0,0,0-2.13.63h0l-3.14,1.81L109.75,373l-7,4,0,0a1.67,1.67,0,0,0-.65,1.25V382h0v.1a1.68,1.68,0,0,0,.85,1.48h0l.69.4,42.47,24.52a2.88,2.88,0,0,0,2.6,0h0l58.43-33.74,8.48-4.89.08-.06,0,0a.88.88,0,0,0,.41-.65C216.2,369.11,216.18,365.66,216.2,365.43Z" style="fill:#BA68C8"></path><path d="M146.65,408.75l.09,0a2,2,0,0,0,.34.06h0l.25,0h.1v-3.74a2.65,2.65,0,0,1-1.31-.32L103,379.87a1.65,1.65,0,0,1-.85-1.57V382h0v.1a1.68,1.68,0,0,0,.85,1.48h0l.69.4,42.47,24.52.29.14Z" style="fill:#fff;opacity:0.6000000000000001"></path><path d="M216.2,369.17a.88.88,0,0,1-.41.65l0,0-.08.06-66.91,38.63h0a2.57,2.57,0,0,1-1.25.31h0v-3.74a3,3,0,0,0,1.29-.31h0l67-38.68,0,0a.91.91,0,0,0,.41-.65C216.18,365.66,216.2,369.11,216.2,369.17Z" style="fill:#fff;opacity:0.7000000000000001"></path><path d="M216.2,365.43a.91.91,0,0,1-.41.65l0,0-8.57,4.94-35.39,20.44-23,13.3h0a2.82,2.82,0,0,1-1.25.31,2.7,2.7,0,0,1-1.35-.32l-.74-.42-33.07-19.1-8.66-5-.69-.39h0a1.69,1.69,0,0,1-.85-1.54v-.05a1.67,1.67,0,0,1,.65-1.25l0,0,7-4,54.65-31.56,3.14-1.81h0a4.78,4.78,0,0,1,2.13-.63h0a4.78,4.78,0,0,1,2.52.59l.09.05,43.33,25h0l0,0,.05,0h0a1,1,0,0,1,.32.36.42.42,0,0,1,0,.1.13.13,0,0,1,0,.08.18.18,0,0,1,0,.06s0,0,0,0A.15.15,0,0,1,216.2,365.43Z" style="opacity:0.4"></path><path d="M216.2,365.43a.91.91,0,0,1-.41.65l0,0-8.57,4.94-35.39,20.44-23,13.3h0a2.82,2.82,0,0,1-1.25.31,2.7,2.7,0,0,1-1.35-.32l-.74-.42-33.07-19.1-8.66-5-.69-.39h0a1.69,1.69,0,0,1-.85-1.54v-.05a4.63,4.63,0,0,1,.79-.13l7.75-.77,40.25-4h0l6.29-.63c1.38-.14,2.62-.64,2.76-1.12l1.26-4.2h0l7.85-26.31.59-2v0a.43.43,0,0,1,.05-.12,4.78,4.78,0,0,1,2.52.59l.09.05,1.88,1.09,41.45,23.93h0l0,0,.05,0h0a1,1,0,0,1,.32.36.42.42,0,0,1,0,.1.13.13,0,0,1,0,.08.18.18,0,0,1,0,.06s0,0,0,0A.15.15,0,0,1,216.2,365.43Z" style="fill:#BA68C8"></path><path d="M216.2,365.43a.91.91,0,0,1-.41.65l0,0-8.57,4.94-35.39,20.44-23,13.3h0a2.82,2.82,0,0,1-1.25.31,2.7,2.7,0,0,1-1.35-.32l-.74-.42-33.07-19.1-8.66-5-.69-.39h0a1.69,1.69,0,0,1-.85-1.54v-.05a4.63,4.63,0,0,1,.79-.13l7.75-.77,40.25-4h0l6.29-.63c1.38-.14,2.62-.64,2.76-1.12l1.26-4.2h0l7.85-26.31.59-2v0a.43.43,0,0,1,.05-.12,4.78,4.78,0,0,1,2.52.59l.09.05,1.88,1.09,41.45,23.93h0l0,0,.05,0h0a1,1,0,0,1,.32.36.42.42,0,0,1,0,.1.13.13,0,0,1,0,.08.18.18,0,0,1,0,.06s0,0,0,0A.15.15,0,0,1,216.2,365.43Z" style="fill:#fff;opacity:0.8"></path><path d="M215.66,366.16l.08-.05,0,0a.78.78,0,0,0-.12-1.42L166.78,367l-.1,1,40.5,3Z" style="fill:#BA68C8;opacity:0.2"></path><path d="M146.13,404.79a2.92,2.92,0,0,0,2.6,0h0l23-13.3-17.33-15.05-4.11.15-5,27.78Z" style="fill:#BA68C8;opacity:0.2"></path><path d="M216.19,365.43a.87.87,0,0,1-.4.65l0,0-67,38.68h0a2.57,2.57,0,0,1-1.25.3l3.77-34.82c.15-1.44,3.46-2.63,7.77-2.79Z" style="fill:#BA68C8"></path><path d="M216.19,365.43a.87.87,0,0,1-.4.65l0,0-67,38.68h0a2.57,2.57,0,0,1-1.25.3l3.77-34.82c.15-1.44,3.46-2.63,7.77-2.79Z" style="fill:#fff;opacity:0.85"></path><path d="M169.72,339l-.21,2.08-2.74,26.07v.07l-.06.64-.6,5.66c-.15,1.45-3.46,2.64-7.77,2.79l-3.88.14h0l-3.88.15h-.23L110.8,378l-8.68.31v-.05a1.67,1.67,0,0,1,.65-1.25l0,0,7-4,54.66-31.56,3.13-1.81h0a4.78,4.78,0,0,1,2.13-.63Z" style="fill:#BA68C8;opacity:0.2"></path><path d="M169.68,339v.15l-.32,1.94-4.29,26.15v0l-.07.43-.79,4.82c-.23,1.36-3.25,2.48-7.27,2.71l-3.61.2h0l-2.62.14h-.16l-39.75,2.22-8.64.49v0a1.67,1.67,0,0,1,.65-1.25l0,0,7-4,54.66-31.56,3.13-1.81h0A4.78,4.78,0,0,1,169.68,339Z" style="fill:#BA68C8"></path><path d="M169.68,339v.15l-.32,1.94-4.29,26.15v0l-.07.43-.79,4.82c-.23,1.36-3.25,2.48-7.27,2.71l-3.61.2h0l-2.62.14h-.16l-39.75,2.22-8.64.49v0a1.67,1.67,0,0,1,.65-1.25l0,0,7-4,54.66-31.56,3.13-1.81h0A4.78,4.78,0,0,1,169.68,339Z" style="fill:#fff;opacity:0.9"></path><path d="M166.59,377.24a1.5,1.5,0,0,1-1.44-1,1.46,1.46,0,0,1,.77-1.78,1.48,1.48,0,0,1,1.2-.09,1.45,1.45,0,0,1,.89,1.87,1.62,1.62,0,0,1-1,1A1.29,1.29,0,0,1,166.59,377.24Z" style="fill:#fff"></path><path d="M167.12,375.28l-.22,0a1.47,1.47,0,0,1-1.24-1.68v-.12a1,1,0,0,0,0-1.73l0-.12a1.54,1.54,0,0,1,.12-.93,1.48,1.48,0,0,1-.73-.61l0-.08a1.53,1.53,0,0,1-.24-.94,1.35,1.35,0,0,1-.91-.3l-.1-.08a1.55,1.55,0,0,1-.54-.8,1.46,1.46,0,0,1-1,0l-.08,0a1.48,1.48,0,0,1,.8-2.85l.2.06a1.48,1.48,0,0,1,1,1,1.48,1.48,0,0,1,1.4.2l.13.1a1.49,1.49,0,0,1,.57,1.3h0a1.48,1.48,0,0,1,1.24.67l.1.16a2.22,2.22,0,0,0,1,2.51l0,.17a1.47,1.47,0,0,1-.44,1.33,1.52,1.52,0,0,1,.49,1.3l0,.18A1.48,1.48,0,0,1,167.12,375.28Zm-9.92-4.66a1.48,1.48,0,0,1-1.45-1.18c0-.08,0-.16,0-.25a7.15,7.15,0,0,0,1.45-3.26l.17-.12a1.47,1.47,0,0,1,1.51-.11,1.47,1.47,0,0,1,1.13-.89l.14,0,.45,2.93-.11,0a1.49,1.49,0,0,1-.91-.15,1.38,1.38,0,0,1-.52.65l-.07.06a1.58,1.58,0,0,1-.38.21,1.41,1.41,0,0,1,.08.31v0a1.47,1.47,0,0,1-1.15,1.74A1.53,1.53,0,0,1,157.2,370.62Z" style="fill:#fff"></path><path d="M158.55,372.6a1.49,1.49,0,0,1-.54-.11,1.51,1.51,0,0,1-.87-1.92,1.46,1.46,0,0,1,1.88-.86l-.41,1.24.85-1-.85,1,.89-1a1.48,1.48,0,0,1,.33,1.89A1.51,1.51,0,0,1,158.55,372.6Z" style="fill:#fff"></path><path d="M157.61,378.62h-.23a1.46,1.46,0,0,1-1.18-.69,1.48,1.48,0,0,1-1.33.38l-.16,0a1.48,1.48,0,0,1-1.06-.92,1.49,1.49,0,0,1-1.42.09l-.17-.08a1.47,1.47,0,0,1-.82-1.22,1.49,1.49,0,0,1-1.46-.42l-.14-.15a4.62,4.62,0,0,0-1.08-3.35,2.46,2.46,0,0,1,.07-.29,1.51,1.51,0,0,1,1.47-1.06,1.48,1.48,0,0,1,.8-1.48l.2-.09a1.47,1.47,0,0,1,1.54.2,1.51,1.51,0,0,1,1.26-.78h.2a1.47,1.47,0,0,1,1.24.68,1.52,1.52,0,0,1,1.35-.39l.18,0a1.49,1.49,0,0,1,1.1,1.78,1.47,1.47,0,0,1-1.78,1.1l-.12,0a1.52,1.52,0,0,1-.94-.65,1.46,1.46,0,0,1-1,.42H154a1.51,1.51,0,0,1-1-.33,1.53,1.53,0,0,1-.7.65l-.07,0a1.43,1.43,0,0,1-.72.16,1.5,1.5,0,0,1-.05.59h0a1.54,1.54,0,0,1-.16.44,1.45,1.45,0,0,1,.56.4l.07.08a1.54,1.54,0,0,1,.4.91,1.43,1.43,0,0,1,1,.1l.11.05a1.52,1.52,0,0,1,.76.82,1.49,1.49,0,0,1,1.1-.2l.15,0a1.46,1.46,0,0,1,.94.67,1.47,1.47,0,0,1,1.1-.41h.15a1.49,1.49,0,0,1,1.06.53,1.48,1.48,0,0,1,1-.56h.15a1.47,1.47,0,0,1,1.14.4,1.5,1.5,0,0,1,1-.68l.15,0a1.45,1.45,0,0,1,1.18.3,1.45,1.45,0,0,1,1-.77l.15,0a1.48,1.48,0,1,1,.73,2.87l-.14,0a1.5,1.5,0,0,1-1.3-.28,1.45,1.45,0,0,1-1.06.79l-.15,0a1.51,1.51,0,0,1-1.28-.39,1.47,1.47,0,0,1-1.14.7H160a1.46,1.46,0,0,1-1.25-.52A1.48,1.48,0,0,1,157.61,378.62Z" style="fill:#fff"></path><path d="M166.6,375.76c2.43-6.45-3-10-6.26-9.51s-4.27,2.78-1.79,4.87c-3.62-1.43-7.38-1.3-8.43,1s4.09,7.47,16.48,3.61Z" style="fill:#BA68C8"></path></g><g id="freepik--Bouquet--inject-379"><path d="M90.64,363.9c-.3.17-11,16.68-11,16.68a6.47,6.47,0,0,1-2.58-1.51L72.91,384a3.87,3.87,0,0,1-2.83-1.46l2.72-3.25s-1.54-.49-2-1.39L66.51,382a7.41,7.41,0,0,1-2.46-2.18l1.21-1.31-2.83,2S60.34,378.93,60,378l6.29-5.79-6.52,3.91a12.46,12.46,0,0,1-1.57-2.92l6.82-4.75-1.22-1.93,17.49-10.71Z" style="fill:#455a64"></path><path d="M61.63,379.87l.8.65,2.83-2,8.48-8.64Zm10.66-15.59-7.69,3.48.45.7Zm5.65.84L59.31,375.39l.49.74,6.52-3.91Zm-.89,13.95a4.64,4.64,0,0,0,.93.74l7.11-12.73Zm-6.22-1.21a2.19,2.19,0,0,0,.5.6L81,366.28Z" style="fill:#37474f"></path><path d="M140.6,334.82c-12-.76-25.07,4.8-33.73,12.74-6.79,6.22-16.18,25-16.18,25-8.4,1.9-20.22-7.94-20.22-16.12,9.28-5.67,20.38-13.44,24.88-19,8.46-10.41,2.54-25.24-.53-30s20.21-2.74,31,8.18S147.15,335,140.6,334.82Z" style="fill:#BA68C8"></path><path d="M140.6,334.82c-12-.76-25.07,4.8-33.73,12.74-6.79,6.22-16.18,25-16.18,25-8.4,1.9-20.22-7.94-20.22-16.12,9.28-5.67,20.38-13.44,24.88-19,8.46-10.41,2.54-25.24-.53-30s20.21-2.74,31,8.18S147.15,335,140.6,334.82Z" style="fill:#fff;opacity:0.4"></path><path d="M109.12,345.6c-5.25,1.15-11.3-3.18-13.77-8.17l-2.87,3s3.92,8.42,13,8.51Z" style="fill:#BA68C8"></path><path d="M109.12,345.6c-5.25,1.15-11.3-3.18-13.77-8.17l-2.87,3s3.92,8.42,13,8.51Z" style="opacity:0.30000000000000004"></path><path d="M109.72,323.92c-4.36,3.87-14,1-19.87-.32a13.67,13.67,0,0,0-9.76,1.2s1.65-10.94,9.54-15c8.12-4.16,17.49-4.24,23.68,4.61C114,317.66,112.76,321.22,109.72,323.92Z" style="fill:#455a64"></path><path d="M96,299.43c-5.58,6.79-11.34,6.88-17,3.05s-9-6.77-11-6.33a19.73,19.73,0,0,1,15.28-8.57C90.29,287.26,96.22,294,96,299.43Z" style="fill:#455a64"></path><path d="M124.88,327c-6.73,6-4.64,15.75,2.87,26.28,1.73-4,9.09-7.72,11.58-13.69,4.18-10-.35-15.88-1.53-17.72C132.45,322.21,129.53,322.82,124.88,327Z" style="fill:#455a64"></path><path d="M147.81,338.64c3.11,4.39,5.12,7.61,10.54,10.35s7.64,2.4,11,5.49c5.3-11.36-.94-19.09-7.66-23S147.76,331.15,147.81,338.64Z" style="fill:#455a64"></path><path d="M90.6,269c-1.4,3.1-.59,6.83.48,10.06-4.2-1.21-9,2.65-9.37,7.56s3.75,9.55,8.08,9.09a9.79,9.79,0,0,0,1.14,11.1,7.18,7.18,0,0,0,9.87.42c-2,3.34,0,8.31,3.23,9.89s7.1.55,10.27-1.32A10.61,10.61,0,0,0,118.4,326a8.16,8.16,0,0,0,9.91-.79,6.78,6.78,0,0,0,1.62,7.78,5.1,5.1,0,0,0,7-.89c.27,4.45,4.13,8.17,8.06,7.77s7.22-4.86,6.87-9.3A11.32,11.32,0,0,0,163.18,333a6.48,6.48,0,0,0,3.8,7.83c2.85.89,6.07-.82,7.69-3.65a12.73,12.73,0,0,0,.85-9.7,9.12,9.12,0,0,0,7.85-4.69,11.74,11.74,0,0,0,.67-10,11.59,11.59,0,0,0,2.41-11.54c-1.38-3.88-5.06-6.53-8.76-6.32a9.16,9.16,0,0,0,1.82-10,7,7,0,0,0-8.25-3.93c1.14-4.45-.49-9.58-3.85-12.15a9.08,9.08,0,0,0-11.43.47c-2.83-5.13-9.31-7.14-14.11-4.37-.27-4.13-3.19-7.81-6.78-8.55S127.57,258,126,261.7a11.31,11.31,0,0,0-16.54-1.16c-1.82,1.75-3.15,4.09-5,5.8-1.55,1.45-4.72,3.05-6.51,1.27-.72-.73-1.13-1.35-2.16-1.54a4.41,4.41,0,0,0-2.75.47A5.16,5.16,0,0,0,90.6,269Z" style="fill:#BA68C8"></path><path d="M90.6,269c-1.4,3.1-.59,6.83.48,10.06-4.2-1.21-9,2.65-9.37,7.56s3.75,9.55,8.08,9.09a9.79,9.79,0,0,0,1.14,11.1,7.18,7.18,0,0,0,9.87.42c-2,3.34,0,8.31,3.23,9.89s7.1.55,10.27-1.32A10.61,10.61,0,0,0,118.4,326a8.16,8.16,0,0,0,9.91-.79,6.78,6.78,0,0,0,1.62,7.78,5.1,5.1,0,0,0,7-.89c.27,4.45,4.13,8.17,8.06,7.77s7.22-4.86,6.87-9.3A11.32,11.32,0,0,0,163.18,333a6.48,6.48,0,0,0,3.8,7.83c2.85.89,6.07-.82,7.69-3.65a12.73,12.73,0,0,0,.85-9.7,9.12,9.12,0,0,0,7.85-4.69,11.74,11.74,0,0,0,.67-10,11.59,11.59,0,0,0,2.41-11.54c-1.38-3.88-5.06-6.53-8.76-6.32a9.16,9.16,0,0,0,1.82-10,7,7,0,0,0-8.25-3.93c1.14-4.45-.49-9.58-3.85-12.15a9.08,9.08,0,0,0-11.43.47c-2.83-5.13-9.31-7.14-14.11-4.37-.27-4.13-3.19-7.81-6.78-8.55S127.57,258,126,261.7a11.31,11.31,0,0,0-16.54-1.16c-1.82,1.75-3.15,4.09-5,5.8-1.55,1.45-4.72,3.05-6.51,1.27-.72-.73-1.13-1.35-2.16-1.54a4.41,4.41,0,0,0-2.75.47A5.16,5.16,0,0,0,90.6,269Z" style="fill:#fff;opacity:0.5"></path><g style="opacity:0.30000000000000004"><path d="M98.32,276a1.93,1.93,0,0,0-.78.25,4.52,4.52,0,0,0-1,.74,5.6,5.6,0,0,0-1.38,2.22,5.38,5.38,0,0,0-.28,1.6,11.73,11.73,0,0,0-1.45,0,3.66,3.66,0,0,0-2.63,1.07,7.77,7.77,0,0,0-2.07,5.3,8.48,8.48,0,0,0,1.92,5.57c.53.67,1.15,1.25,1.72,1.88a8.88,8.88,0,0,1,1.88,2.6,8.69,8.69,0,0,0,.47,1.3c.05.09.29.17.36.05a3.6,3.6,0,0,0-.08-2.31,10.13,10.13,0,0,0-1.21-2.7c-1.07-1.68-2.4-3.21-2.72-5.32a7,7,0,0,1,.82-4.65,4.56,4.56,0,0,1,1.38-1.45,2.89,2.89,0,0,1,1.65-.38l0,.22a8.4,8.4,0,0,0,.39,1.41,3.29,3.29,0,0,0,.58,1.17c.2.22.88.33.9-.15,0-.79-.2-1.6-.21-2.41a8.65,8.65,0,0,1,.24-2.43,3.74,3.74,0,0,1,.71-1.34l.12-.14.06-.05a2.75,2.75,0,0,1,.26-.22l.24-.14c.3-.16.58-.36.88-.52a.69.69,0,0,0,.43-.45c0-.17-.06-.47-.24-.48a2.3,2.3,0,0,1-.32-.15A1.67,1.67,0,0,0,98.32,276Z" style="fill:#BA68C8"></path><path d="M99.72,300.6a3.23,3.23,0,0,1,.09,1.28c0,.51,0,1,0,1.53a12.24,12.24,0,0,0,.59,2.63c.57,1.63,1.32,3.35,2.82,4.1a3.33,3.33,0,0,0,2.81,0c.3-.13.74-.31.89-.68s-.06-.38-.26-.42a2.4,2.4,0,0,0-.65.07,1.06,1.06,0,0,1-.65-.22,3.25,3.25,0,0,1-.85-.59,8.65,8.65,0,0,1-1.27-1.81,17,17,0,0,1-1.51-3.87,3.65,3.65,0,0,0-.64-1.18,6.06,6.06,0,0,0-1.07-.95C100,300.44,99.63,300.4,99.72,300.6Z" style="fill:#BA68C8"></path><path d="M132.13,261a5.87,5.87,0,0,0-2,2.18,8,8,0,0,0-.51,1.16,7.79,7.79,0,0,0-.19,1.27c0,.18.31.33.4.17a9.74,9.74,0,0,1,1.44-2,4.26,4.26,0,0,1,1.62-1.16c1.29-.42,2.62.37,3.58,1.32,2.29,2.27,3.25,6.92,6.94,6.85.24,0,.47-.3.23-.51a17.56,17.56,0,0,1-1.8-1.76,12.31,12.31,0,0,1-1.51-2.36c-.93-1.79-1.78-3.75-3.29-5A4.13,4.13,0,0,0,132.13,261Z" style="fill:#BA68C8"></path><path d="M167.35,283.34c-.17.1.12.26.2.26a4.34,4.34,0,0,1,2.26.46,7.49,7.49,0,0,1,1.8,1.67c.91,1,2.18,1.85,2.32,3.44.26,3-1.27,6-.28,9,.21.62,1.33.22,1.33-.39a39.79,39.79,0,0,1,.8-6.16c.25-1.58.46-3.45-.43-4.82a8.72,8.72,0,0,0-3.55-2.85C170.51,283.32,168.72,282.62,167.35,283.34Z" style="fill:#BA68C8"></path><path d="M178.18,310.65a1.11,1.11,0,0,0-.27.26,2.46,2.46,0,0,0,.17,1.23c.19.34.51.55.7.91a3.54,3.54,0,0,1,.35,1.07,5.93,5.93,0,0,1-.33,2.83,5.09,5.09,0,0,1-1.21,2.38,15,15,0,0,1-2.88,1.76c0-.13,0-.26.06-.39.15-1.71,0-4.2-1.36-5.27-.42-.33-1.54.06-1.48.76.09,1.09.44,2.1.54,3.19a10.23,10.23,0,0,1,0,2.28,7.24,7.24,0,0,1-1.73,3.93c-1.3,1.34-3.34.77-4.93.83-.6,0-1.19.19-1.79.25a5.56,5.56,0,0,0-.91.14,1.56,1.56,0,0,0-1.27,1.07c-.06.21.35.33.45.18.75-1.18,2-.14,2.9.09a15.07,15.07,0,0,0,2.83.47,5.42,5.42,0,0,0,4.94-2.65,11,11,0,0,0,1.64-4c.94-.21,1.88-.51,2.82-.77a4.13,4.13,0,0,0,2.43-1.94,9.52,9.52,0,0,0,1.41-6,4.89,4.89,0,0,0-1.05-2.32,1.43,1.43,0,0,0-1.21-.6A1.33,1.33,0,0,0,178.18,310.65Z" style="fill:#BA68C8"></path></g><path d="M113.92,272.05l.12-2a10.94,10.94,0,0,0,3.29-2.67c1.34-1.71,1.79-6.65.12-7.68l-3.71-2.26s1.11-1.78.6-2.66-5.47-1.91-6.64-1.42a2.27,2.27,0,0,0-1.13.81s-.22-.21-1.11.61-2.88,1.06-4.24,1.24-2.47,2.37-2.27,4.32.06,4.19-.61,4.78-1.81,4.16-.84,5.26,2.25,2.42,3.26,1.8a7.7,7.7,0,0,1,3.16-.62s-.91,2.1.52,3.36,5.26,2.18,6.64.58S113.92,272.05,113.92,272.05Z" style="fill:#BA68C8"></path><path d="M113.92,272.05l.12-2a10.94,10.94,0,0,0,3.29-2.67c1.34-1.71,1.79-6.65.12-7.68l-3.71-2.26s1.11-1.78.6-2.66-5.47-1.91-6.64-1.42a2.27,2.27,0,0,0-1.13.81s-.22-.21-1.11.61-2.88,1.06-4.24,1.24-2.47,2.37-2.27,4.32.06,4.19-.61,4.78-1.81,4.16-.84,5.26,2.25,2.42,3.26,1.8a7.7,7.7,0,0,1,3.16-.62s-.91,2.1.52,3.36,5.26,2.18,6.64.58S113.92,272.05,113.92,272.05Z" style="opacity:0.2"></path><path d="M113.09,270.94a2.71,2.71,0,0,0,3.16-1.34c1.2-2-.77-9.44-5.82-9.1A5.77,5.77,0,0,1,113,266C112.72,269.79,113.09,270.94,113.09,270.94Z" style="fill:#BA68C8"></path><path d="M113.09,270.94a2.71,2.71,0,0,0,3.16-1.34c1.2-2-.77-9.44-5.82-9.1A5.77,5.77,0,0,1,113,266C112.72,269.79,113.09,270.94,113.09,270.94Z" style="opacity:0.30000000000000004"></path><path d="M102.84,271.14a5.46,5.46,0,0,0-.07,2.51c.32,1.17,5.66,1.61,5.66,1.61s-1.8-.06-.67-.83,3.65-.75,5.33-3.49l-6.42-.5S103.55,269.33,102.84,271.14Z" style="fill:#BA68C8"></path><path d="M102.84,271.14a5.46,5.46,0,0,0-.07,2.51c.32,1.17,5.66,1.61,5.66,1.61s-1.8-.06-.67-.83,3.65-.75,5.33-3.49l-6.42-.5S103.55,269.33,102.84,271.14Z" style="opacity:0.30000000000000004"></path><path d="M102.9,271.55s.15.09-1,.61a2.8,2.8,0,0,1-2.83-.51c-.36-.4.75-1.87.48-3.24s-.86-4.47-2.11-4.21a2.06,2.06,0,0,1,3.07.2C102,266.12,102.06,270.71,102.9,271.55Z" style="fill:#BA68C8"></path><path d="M102.9,271.55s.15.09-1,.61a2.8,2.8,0,0,1-2.83-.51c-.36-.4.75-1.87.48-3.24s-.86-4.47-2.11-4.21a2.06,2.06,0,0,1,3.07.2C102,266.12,102.06,270.71,102.9,271.55Z" style="opacity:0.30000000000000004"></path><path d="M100,263.86s-.25,1.45,1.49-.59,2.33-2.8,2.33-2.8-.74-1.15,0-1.8a7.36,7.36,0,0,0,1.83-4,3.68,3.68,0,0,1-2.37,1.4c-1.57.23-2.42.63-2.23,3.05A7.46,7.46,0,0,1,100,263.86Z" style="fill:#BA68C8"></path><path d="M100,263.86s-.25,1.45,1.49-.59,2.33-2.8,2.33-2.8-.74-1.15,0-1.8a7.36,7.36,0,0,0,1.83-4,3.68,3.68,0,0,1-2.37,1.4c-1.57.23-2.42.63-2.23,3.05A7.46,7.46,0,0,1,100,263.86Z" style="opacity:0.30000000000000004"></path><path d="M106.57,254.18s-1.14-.69-1.7,2.91c-.2,1.26,7.77,1.18,7.77,1.18S111,251.69,106.57,254.18Z" style="fill:#BA68C8"></path><path d="M106.57,254.18s-1.14-.69-1.7,2.91c-.2,1.26,7.77,1.18,7.77,1.18S111,251.69,106.57,254.18Z" style="opacity:0.30000000000000004"></path><path d="M112.67,258.46A3.06,3.06,0,0,1,115,257.2c1.75-.2,4.75,4.53,2.57,6.84-2.63-3.76-5.73-3.42-5.73-3.42Z" style="fill:#BA68C8"></path><path d="M112.67,258.46A3.06,3.06,0,0,1,115,257.2c1.75-.2,4.75,4.53,2.57,6.84-2.63-3.76-5.73-3.42-5.73-3.42Z" style="opacity:0.30000000000000004"></path><path d="M110.94,267.27a2.32,2.32,0,0,0-.47-3l-1.38-1.71s-2.08.62-2.69,1.68.14.91.14.91,1.07-1.54,2.13-.11S109.5,268.75,110.94,267.27Z" style="fill:#BA68C8"></path><path d="M105.37,259.78a4.4,4.4,0,0,1,3.5-.19,4.71,4.71,0,0,1,2.91,2.75,3.29,3.29,0,0,0-2.75-.23,48.07,48.07,0,0,0-4.66,1.77S102.52,261.94,105.37,259.78Z" style="fill:#BA68C8"></path><path d="M104,263a3.7,3.7,0,0,0-.48,3.57c.88,1.82,3,2.63,3.18,3.92,0,0,1.61-.2,1.27-1.35s-1.45-3.94-.21-5C107.73,264.12,105.94,261.53,104,263Z" style="fill:#BA68C8"></path><path d="M110.23,270.13a18.7,18.7,0,0,0,1.37-1.31,4.93,4.93,0,0,0,.69-3.86c-.18-1.17-.39-2.34-.49-3.52-.08-.88.08-.6.5-1.07s.2-.69-.18-1a6,6,0,0,0-1.35-.57,18.07,18.07,0,0,0-2.64-1.32c-1.62-.41-4.46,0-4.52,2.45,0,.73.1,1-.37,1.59a6,6,0,0,0-1.66,3.61,6.23,6.23,0,0,0,1.4,4.74,5.45,5.45,0,0,0,1.86,1.36,5.3,5.3,0,0,0,2.71.11A4.44,4.44,0,0,0,110.23,270.13Z" style="fill:#BA68C8"></path><path d="M110.23,270.13a18.7,18.7,0,0,0,1.37-1.31,4.93,4.93,0,0,0,.69-3.86c-.18-1.17-.39-2.34-.49-3.52-.08-.88.08-.6.5-1.07s.2-.69-.18-1a6,6,0,0,0-1.35-.57,18.07,18.07,0,0,0-2.64-1.32c-1.62-.41-4.46,0-4.52,2.45,0,.73.1,1-.37,1.59a6,6,0,0,0-1.66,3.61,6.23,6.23,0,0,0,1.4,4.74,5.45,5.45,0,0,0,1.86,1.36,5.3,5.3,0,0,0,2.71.11A4.44,4.44,0,0,0,110.23,270.13Z" style="opacity:0.5"></path><path d="M106.67,270.44a4.53,4.53,0,0,0,4.81-3.12c.92-3.1-1-6.82-1-6.82a6.18,6.18,0,0,1,4,4.08c.74,3.09-.57,6.38-2.28,7S107.42,272.4,106.67,270.44Z" style="fill:#BA68C8"></path><path d="M110.47,264.22a1.76,1.76,0,0,0-2.88-.21c-1.78,1.58-2.44,3.83-3.26,2.34s-1.07-3.52.59-4.7S109.58,260.77,110.47,264.22Z" style="fill:#BA68C8"></path><path d="M110.94,267.27s-1.19,2.2-3.13,1.79-2.08-2.54-.63-4.09a2.2,2.2,0,0,0,1.39,2.3A3,3,0,0,0,110.94,267.27Z" style="fill:#BA68C8"></path><path d="M103.85,271.76c1.66.16,1.91-1,.57-2.63s-2.35-3.17-1.72-4.91a22.88,22.88,0,0,1,2.67-4.44,8.9,8.9,0,0,1-2.61.94c-1.34.21-3.13,3.2-2.82,6S101.62,271.56,103.85,271.76Z" style="fill:#BA68C8"></path><path d="M103.61,260.59s.83-1.69,3.64-1.94,4,2,5.54,1.36,1.13-2.35-1.09-3.69-4.18-.95-6.33.17S103,259.89,103.61,260.59Z" style="fill:#BA68C8"></path><path d="M102.72,271.75c-.15,1.05-.13,3.63,2,4.94s2,2.19,4.41.89,3.3-1,4.81-5.53a12.18,12.18,0,0,0-1.28,1.33c-1.22,1.32-3.58.95-5.64,1.45C104.31,275.49,102.72,271.75,102.72,271.75Z" style="fill:#BA68C8"></path><path d="M115.37,270.65c-.89.22.46-.46,1.23-2.37s1.37-4.88.33-7a6.87,6.87,0,0,0-3.53-3.51,3.06,3.06,0,0,1,2.77-.56c2.11.36,4.3,3.33,4.06,6.8S118.08,270,115.37,270.65Z" style="fill:#BA68C8"></path><path d="M106.57,254.18a4.8,4.8,0,0,1,4.38-.31c2.36,1.06,1.66,4.33,2.59,3.8s1.56-1.61.51-3.4-2.81-2.89-4.5-2.27S106.72,252.75,106.57,254.18Z" style="fill:#BA68C8"></path><path d="M99.52,264.08c1.23-.42.83-1.25.7-3.23s.22-2.8,2.23-3.82a11.14,11.14,0,0,0,3.16-2.34,3.39,3.39,0,0,1-2.45.51c-1.46-.23-5.09.06-5.3,4.12S99,264.26,99.52,264.08Z" style="fill:#BA68C8"></path><path d="M102,272.16a3.19,3.19,0,0,1-4.5-.75c-2.17-2.56-.7-7.1.3-7.37s1.79,1.64,1.34,2.61-1.57,2.93-.2,4.46A3.11,3.11,0,0,0,102,272.16Z" style="fill:#BA68C8"></path><path d="M130.61,280.35l-1.09,3.21a21,21,0,0,1,3.44,6.76c1,3.71-1.45,11.79-4.72,12.09l-7.24.64s.59,3.64-.76,4.61-9.78-1.28-11.29-3a4.45,4.45,0,0,1-1.25-2.14s-.47.16-1.34-1.83-3.83-3.9-5.83-5.24-2.35-5.64-.79-8.53,2.77-6.5,2.1-7.94-.18-7.92,2-8.89,5.07-2,6.25-.26,4.54,3.45,4.54,3.45-.09-4,3-4.86,9.62.71,10.76,4.28S130.61,280.35,130.61,280.35Z" style="fill:#BA68C8"></path><path d="M130.61,280.35l-1.09,3.21a21,21,0,0,1,3.44,6.76c1,3.71-1.45,11.79-4.72,12.09l-7.24.64s.59,3.64-.76,4.61-9.78-1.28-11.29-3a4.45,4.45,0,0,1-1.25-2.14s-.47.16-1.34-1.83-3.83-3.9-5.83-5.24-2.35-5.64-.79-8.53,2.77-6.5,2.1-7.94-.18-7.92,2-8.89,5.07-2,6.25-.26,4.54,3.45,4.54,3.45-.09-4,3-4.86,9.62.71,10.76,4.28S130.61,280.35,130.61,280.35Z" style="fill:#fff;opacity:0.35000000000000003"></path><path d="M128.6,281.45a5.11,5.11,0,0,1,4.08,4.56c.61,4.07-7.22,14.16-14.9,9.67a8.84,8.84,0,0,0,7.55-6.51C127.28,283,128.6,281.45,128.6,281.45Z" style="fill:#BA68C8"></path><path d="M128.6,281.45a5.11,5.11,0,0,1,4.08,4.56c.61,4.07-7.22,14.16-14.9,9.67a8.84,8.84,0,0,0,7.55-6.51C127.28,283,128.6,281.45,128.6,281.45Z" style="fill:#fff;opacity:0.65"></path><path d="M112.71,273.13a9,9,0,0,1,1.5-4c1.23-1.59,9.87,1.91,9.87,1.91s-2.85-1.33-1.58.75,5.23,4.05,6.1,9.64l-10.34-4.24S112.67,276.49,112.71,273.13Z" style="fill:#BA68C8"></path><path d="M112.71,273.13a9,9,0,0,1,1.5-4c1.23-1.59,9.87,1.91,9.87,1.91s-2.85-1.33-1.58.75,5.23,4.05,6.1,9.64l-10.34-4.24S112.67,276.49,112.71,273.13Z" style="fill:#fff;opacity:0.65"></path><path d="M113.07,272.52s.3,0-1.1-1.69a4.85,4.85,0,0,0-4.75-1.43c-.82.36,0,3.51-1.32,5.45s-4.2,6.31-6,4.93c0,0,1.65,3.7,4.93,2.09S111.22,273.19,113.07,272.52Z" style="fill:#BA68C8"></path><path d="M113.07,272.52s.3,0-1.1-1.69a4.85,4.85,0,0,0-4.75-1.43c-.82.36,0,3.51-1.32,5.45s-4.2,6.31-6,4.93c0,0,1.65,3.7,4.93,2.09S111.22,273.19,113.07,272.52Z" style="fill:#fff;opacity:0.65"></path><path d="M103.57,282.25s.54-2.46,2,2.08,1.85,6.21,1.85,6.21-1.89,1.21-1.16,2.81a13.39,13.39,0,0,1,.33,7.64,7.2,7.2,0,0,0-2.82-4.05c-2.31-1.58-3.38-2.88-1.54-6.5A12.87,12.87,0,0,0,103.57,282.25Z" style="fill:#BA68C8"></path><path d="M103.57,282.25s.54-2.46,2,2.08,1.85,6.21,1.85,6.21-1.89,1.21-1.16,2.81a13.39,13.39,0,0,1,.33,7.64,7.2,7.2,0,0,0-2.82-4.05c-2.31-1.58-3.38-2.88-1.54-6.5A12.87,12.87,0,0,0,103.57,282.25Z" style="fill:#fff;opacity:0.65"></path><path d="M107.7,302.54s-2.22.18-.8-5.88c.5-2.12,12.91,4.24,12.91,4.24S113.07,309.91,107.7,302.54Z" style="fill:#BA68C8"></path><path d="M107.7,302.54s-2.22.18-.8-5.88c.5-2.12,12.91,4.24,12.91,4.24S113.07,309.91,107.7,302.54Z" style="fill:#fff;opacity:0.65"></path><path d="M120,300.62a5.89,5.89,0,0,0,2.88,3.82c2.61,1.68,10.31-3.37,8.38-8.69-6.52,3.82-11.13.87-11.13.87Z" style="fill:#BA68C8"></path><path d="M120,300.62a5.89,5.89,0,0,0,2.88,3.82c2.61,1.68,10.31-3.37,8.38-8.69-6.52,3.82-11.13.87-11.13.87Z" style="fill:#fff;opacity:0.65"></path><path d="M122.9,285.49a3.79,3.79,0,0,1-2.69,4.41L117,291.49s-2.86-2.59-3.13-4.73.8-1.31.8-1.31.68,3.25,3.26,1.85S121.59,282.07,122.9,285.49Z" style="fill:#BA68C8"></path><path d="M109.41,292.86a8.18,8.18,0,0,0,5.35,3,7.25,7.25,0,0,0,6.29-2s-2,.34-4.44-1.79-6.16-6.42-6.16-6.42S106.34,287.24,109.41,292.86Z" style="fill:#BA68C8"></path><path d="M109.25,286.8s-1-3.8,1.53-6,6.29-1.79,7.48-3.63c0,0,2.37,1.57,1.1,3.1s-4.78,5-3.5,7.6C115.86,287.91,111.41,290.55,109.25,286.8Z" style="fill:#BA68C8"></path><path d="M123.61,280.48a28.81,28.81,0,0,1,1.3,3.12c.7,2.23-.25,4.72-1.38,6.57-1,1.68-2.1,3.34-3,5.11-.68,1.32-.26,1,.09,2.07.28.84-.12,1.23-.9,1.37a10.26,10.26,0,0,1-2.47-.15c-1.66-.12-3.3.36-5,0-2.79-.63-7-3.47-5.49-7.37.43-1.15.81-1.54.43-2.78a10.88,10.88,0,0,1-.3-6.93,9.82,9.82,0,0,1,5.23-6.32,8.36,8.36,0,0,1,3.78-.66c1.67.08,2.88,1.1,4.29,1.94A8.45,8.45,0,0,1,123.61,280.48Z" style="fill:#BA68C8"></path><path d="M123.61,280.48a28.81,28.81,0,0,1,1.3,3.12c.7,2.23-.25,4.72-1.38,6.57-1,1.68-2.1,3.34-3,5.11-.68,1.32-.26,1,.09,2.07.28.84-.12,1.23-.9,1.37a10.26,10.26,0,0,1-2.47-.15c-1.66-.12-3.3.36-5,0-2.79-.63-7-3.47-5.49-7.37.43-1.15.81-1.54.43-2.78a10.88,10.88,0,0,1-.3-6.93,9.82,9.82,0,0,1,5.23-6.32,8.36,8.36,0,0,1,3.78-.66c1.67.08,2.88,1.1,4.29,1.94A8.45,8.45,0,0,1,123.61,280.48Z" style="fill:#fff;opacity:0.5"></path><path d="M118.26,277.21c.87.05,6,3.06,5.51,8.63s-6,9.84-6,9.84,5.69,1,8.82-3.26,3.19-10.42.94-12.79S120.67,274.73,118.26,277.21Z" style="fill:#fff"></path><path d="M120.21,289.9s-2.86,1.93-4.63-1.93-1.37-7.89-3.6-6.2-3.93,4.66-2.09,7.8S116.62,294.59,120.21,289.9Z" style="fill:#fff"></path><path d="M122.9,285.49s-.46-4.35-3.75-5.24-4.87,2.34-3.59,5.91a3.4,3.4,0,0,1,3.63-2.52A5.53,5.53,0,0,1,122.9,285.49Z" style="fill:#fff"></path><path d="M114.69,272.93c2.7,1.06,2.34,3.05-.8,4.56s-5.69,3.12-5.82,6.33,1.34,9,1.34,9a17.06,17.06,0,0,0-3.49-3.53c-1.94-1.37-2.84-7.45-.56-11.61S111.08,271.51,114.69,272.93Z" style="fill:#fff"></path><path d="M107.17,290.22s.22,3.29,4.45,5.87,7.63,0,9.54,2.2.26,4.55-4.08,4.92-7.13-1.79-9.77-5.21S105.78,290.82,107.17,290.22Z" style="fill:#fff"></path><path d="M112.91,272.06c.44-1.74,2.11-5.77,6.25-6.16s4.59-1.83,7.47,2.05,4.5,4.18,4,12.4a23.55,23.55,0,0,1-1.15-3.07c-1.06-3-5-4.28-7.89-6.69C117.78,267.46,112.91,272.06,112.91,272.06Z" style="fill:#fff"></path><path d="M132,283.68c-1.24-1,.43,1.08.43,4.66s-1,8.71-4,11.23a10.68,10.68,0,0,1-7.77,2.72c.17.62,1.31,2.22,4,3,3.52,1.08,8.84-1.85,10.68-7.46S135.78,286.88,132,283.68Z" style="fill:#fff"></path><path d="M107.7,302.54a8.87,8.87,0,0,0,6.66,3.9c4.35.2,5.35-5.46,6.46-3.9s1.41,3.73-1.36,5.71-6.25,2.32-8.49,0S107,304.89,107.7,302.54Z" style="fill:#fff"></path><path d="M103,281.56c1.66,1.61.5,2.59-1,5.6s-1.45,4.53,1,7.71a21.85,21.85,0,0,1,3.45,6.12,6.53,6.53,0,0,0-3.51-2.72c-2.43-.77-7.93-4.06-5.66-10.59S102.26,280.83,103,281.56Z" style="fill:#fff"></path><path d="M112,270.83a5.63,5.63,0,0,0-7.51-2.36c-5,2.31-5.63,10.56-4.24,11.75s3.85-1.16,3.77-3-.59-5.81,2.52-7.14A5.31,5.31,0,0,1,112,270.83Z" style="fill:#fff"></path><path d="M155.87,308l-.19,2.8a15.75,15.75,0,0,1,4.11,4.39c1.56,2.65,1.29,9.65-1.23,10.74L153,328.35s1.21,2.7.35,3.82-8,1.58-9.54.66a3.33,3.33,0,0,1-1.43-1.35s-.33.25-1.43-1.08-3.83-2-5.69-2.56-3-3.81-2.39-6.49.85-5.83,0-6.79-1.78-6.17-.22-7.52,3.58-2.94,4.88-1.86,4.29,1.5,4.29,1.5-.89-3.12,1.33-4.6,7.75-2,9.38.51S155.87,308,155.87,308Z" style="fill:#BA68C8"></path><path d="M155.87,308l-.19,2.8a15.75,15.75,0,0,1,4.11,4.39c1.56,2.65,1.29,9.65-1.23,10.74L153,328.35s1.21,2.7.35,3.82-8,1.58-9.54.66a3.33,3.33,0,0,1-1.43-1.35s-.33.25-1.43-1.08-3.83-2-5.69-2.56-3-3.81-2.39-6.49.85-5.83,0-6.79-1.78-6.17-.22-7.52,3.58-2.94,4.88-1.86,4.29,1.5,4.29,1.5-.89-3.12,1.33-4.6,7.75-2,9.38.51S155.87,308,155.87,308Z" style="fill:#fff;opacity:0.35000000000000003"></path><path d="M154.51,309.38a3.88,3.88,0,0,1,4.17,2.5c1.32,3-2.78,13-9.77,11.54a8,8,0,0,0,4.62-7.11C153.78,310.91,154.51,309.38,154.51,309.38Z" style="fill:#BA68C8"></path><path d="M154.51,309.38a3.88,3.88,0,0,1,4.17,2.5c1.32,3-2.78,13-9.77,11.54a8,8,0,0,0,4.62-7.11C153.78,310.91,154.51,309.38,154.51,309.38Z" style="fill:#fff;opacity:0.65"></path><path d="M140.24,307.06a7.63,7.63,0,0,1,.36-3.51c.65-1.58,8.19-1.13,8.19-1.13s-2.52-.28-1.09,1,5,1.78,6.81,5.94l-9-.58S140.9,309.72,140.24,307.06Z" style="fill:#BA68C8"></path><path d="M140.24,307.06a7.63,7.63,0,0,1,.36-3.51c.65-1.58,8.19-1.13,8.19-1.13s-2.52-.28-1.09,1,5,1.78,6.81,5.94l-9-.58S140.9,309.72,140.24,307.06Z" style="fill:#fff;opacity:0.65"></path><path d="M140.4,306.5s.23-.1-1.21-1a4,4,0,0,0-4.06.14c-.57.5.72,2.76.09,4.62s-2,6.07-3.71,5.46c0,0,2.07,2.46,4.32.34S139.08,307.51,140.4,306.5Z" style="fill:#BA68C8"></path><path d="M140.4,306.5s.23-.1-1.21-1a4,4,0,0,0-4.06.14c-.57.5.72,2.76.09,4.62s-2,6.07-3.71,5.46c0,0,2.07,2.46,4.32.34S139.08,307.51,140.4,306.5Z" style="fill:#fff;opacity:0.65"></path><path d="M134.91,316.65s-.09-2.07,2,1.12,2.75,4.38,2.75,4.38-1.25,1.45-.35,2.51a10.41,10.41,0,0,1,1.85,5.91,5.33,5.33,0,0,0-3.07-2.43c-2.14-.63-3.26-1.36-2.55-4.69A10.66,10.66,0,0,0,134.91,316.65Z" style="fill:#BA68C8"></path><path d="M134.91,316.65s-.09-2.07,2,1.12,2.75,4.38,2.75,4.38-1.25,1.45-.35,2.51a10.41,10.41,0,0,1,1.85,5.91,5.33,5.33,0,0,0-3.07-2.43c-2.14-.63-3.26-1.36-2.55-4.69A10.66,10.66,0,0,0,134.91,316.65Z" style="fill:#fff;opacity:0.65"></path><path d="M142.36,331.48s-1.71.73-1.84-4.41c-.05-1.79,11.07-.09,11.07-.09S148.13,335.83,142.36,331.48Z" style="fill:#BA68C8"></path><path d="M142.36,331.48s-1.71.73-1.84-4.41c-.05-1.79,11.07-.09,11.07-.09S148.13,335.83,142.36,331.48Z" style="fill:#fff;opacity:0.65"></path><path d="M151.67,326.72a4.37,4.37,0,0,0,3.06,2.23c2.41.62,7.44-5.38,4.83-9-4.37,4.72-8.62,3.63-8.62,3.63Z" style="fill:#BA68C8"></path><path d="M151.67,326.72a4.37,4.37,0,0,0,3.06,2.23c2.41.62,7.44-5.38,4.83-9-4.37,4.72-8.62,3.63-8.62,3.63Z" style="fill:#fff;opacity:0.65"></path><path d="M150.84,314.07s1.26,2.21-1.21,4.17l-2.23,2.11s-2.79-1.27-3.45-2.88.36-1.25.36-1.25,1.21,2.37,3,.59S149.1,311.73,150.84,314.07Z" style="fill:#BA68C8"></path><path d="M141.71,323.43a6.28,6.28,0,0,0,4.85,1,6.54,6.54,0,0,0,4.56-3.26,4.66,4.66,0,0,1-3.88-.23,68.91,68.91,0,0,1-6.19-3.4S138.13,319.83,141.71,323.43Z" style="fill:#BA68C8"></path><path d="M140.33,318.72s-1.56-2.73,0-5.09,4.59-3.07,5.14-4.83c0,0,2.2.6,1.52,2.14s-2.74,5.21-1.19,6.89C145.79,317.83,142.82,321.09,140.33,318.72Z" style="fill:#BA68C8"></path><path d="M150.37,309.94A23,23,0,0,1,152,312c1,1.57.78,3.78.27,5.53-.47,1.59-1,3.18-1.32,4.81-.27,1.21,0,.86.5,1.6.4.59.16,1-.43,1.32a9.05,9.05,0,0,1-2,.53c-1.34.35-2.53,1.16-3.93,1.31-2.33.25-6.22-.87-5.86-4.32.11-1,.32-1.43-.23-2.3a8.52,8.52,0,0,1-1.67-5.36,8.73,8.73,0,0,1,2.82-6.34,7.46,7.46,0,0,1,2.85-1.53c1.33-.38,2.5.1,3.79.39A6.21,6.21,0,0,1,150.37,309.94Z" style="fill:#BA68C8"></path><path d="M150.37,309.94A23,23,0,0,1,152,312c1,1.57.78,3.78.27,5.53-.47,1.59-1,3.18-1.32,4.81-.27,1.21,0,.86.5,1.6.4.59.16,1-.43,1.32a9.05,9.05,0,0,1-2,.53c-1.34.35-2.53,1.16-3.93,1.31-2.33.25-6.22-.87-5.86-4.32.11-1,.32-1.43-.23-2.3a8.52,8.52,0,0,1-1.67-5.36,8.73,8.73,0,0,1,2.82-6.34,7.46,7.46,0,0,1,2.85-1.53c1.33-.38,2.5.1,3.79.39A6.21,6.21,0,0,1,150.37,309.94Z" style="fill:#fff;opacity:0.5"></path><path d="M145.46,308.8a6.45,6.45,0,0,1,6.14,5.31c.73,4.51-2.69,9.31-2.69,9.31s4.7-.73,6.29-4.9.37-9-1.9-10.28S146.86,306.21,145.46,308.8Z" style="fill:#fff"></path><path d="M149.63,318.24s-1.86,2.27-4-.28-2.72-5.83-4.13-3.92-2.14,4.7,0,6.68S147.77,322.87,149.63,318.24Z" style="fill:#fff"></path><path d="M150.84,314.07s-1.26-3.3-4-3.12-3.36,3.13-1.62,5.59a3.06,3.06,0,0,1,2.35-2.94A4.31,4.31,0,0,1,150.84,314.07Z" style="fill:#fff"></path><path d="M141.76,306.39c2.35.11,2.48,1.77.32,3.79s-3.85,3.95-3.29,6.51a33,33,0,0,0,2.92,6.74,12.65,12.65,0,0,0-3.48-1.85c-1.82-.55-3.79-5.09-2.84-9S138.62,306.23,141.76,306.39Z" style="fill:#fff"></path><path d="M139.4,322s.85,2.52,4.73,3.42,6-2,8-.8,1.14,3.5-2.21,4.95-6,.48-8.79-1.5S138.43,322.79,139.4,322Z" style="fill:#fff"></path><path d="M140.18,306.18c0-1.49.47-5.09,3.67-6.49s3.24-2.66,6.31-.38,4.43,2.09,5.71,8.68a17.83,17.83,0,0,1-1.54-2.1c-1.47-2.1-4.82-2-7.62-3.16C143.08,301.27,140.18,306.18,140.18,306.18Z" style="fill:#fff"></path><path d="M157.63,310.24c-1.19-.49.57.73,1.3,3.55s1,7.09-.81,9.86a9.52,9.52,0,0,1-5.57,4.19c.26.45,1.49,1.4,3.77,1.34,3-.09,6.6-3.8,6.9-8.7S161.3,311.74,157.63,310.24Z" style="fill:#fff"></path><path d="M142.36,331.48a6.81,6.81,0,0,0,6.07,1.29c3.48-1,3.1-5.7,4.3-4.78s1.88,2.56.1,4.85-4.45,3.48-6.69,2.28S142.32,333.5,142.36,331.48Z" style="fill:#fff"></path><path d="M134.33,316.26c1.64.82.92,1.9.39,4.65s-.21,3.94,2.42,5.77a16.27,16.27,0,0,1,4,3.89,4.89,4.89,0,0,0-3.33-1.2c-2.09,0-7.11-1.09-6.66-6.81S133.58,315.89,134.33,316.26Z" style="fill:#fff"></path><path d="M139.19,305.46a4.5,4.5,0,0,0-6.43.14c-3.49,3.15-2.26,9.78-.92,10.35s2.8-1.93,2.35-3.37-1.66-4.4.52-6.27A4.4,4.4,0,0,1,139.19,305.46Z" style="fill:#fff"></path><path d="M155.67,295.14l1-3.08a16.31,16.31,0,0,0,6.3-2.43c2.83-2,5.62-9.53,3.44-12.05l-4.86-5.6s2.49-2.2,2.06-3.86-7.77-6-9.82-5.85a3.39,3.39,0,0,0-2.11.66s-.25-.45-2,.36-5,.1-7.17-.35-4.88,2.41-5.39,5.59-1.68,6.64-3,7.21-4.6,5.58-3.55,7.85,2.5,5.05,4.36,4.61,5.21.74,5.21.74-2.32,2.82-.61,5.59,7.33,6.3,10.17,4.53S155.67,295.14,155.67,295.14Z" style="fill:#BA68C8"></path><path d="M155.67,295.14l1-3.08a16.31,16.31,0,0,0,6.3-2.43c2.83-2,5.62-9.53,3.44-12.05l-4.86-5.6s2.49-2.2,2.06-3.86-7.77-6-9.82-5.85a3.39,3.39,0,0,0-2.11.66s-.25-.45-2,.36-5,.1-7.17-.35-4.88,2.41-5.39,5.59-1.68,6.64-3,7.21-4.6,5.58-3.55,7.85,2.5,5.05,4.36,4.61,5.21.74,5.21.74-2.32,2.82-.61,5.59,7.33,6.3,10.17,4.53S155.67,295.14,155.67,295.14Z" style="opacity:0.2"></path><path d="M154.84,292.93a4.3,4.3,0,0,0,5.52-.39c2.74-2.51,2.8-15.33-5.26-17.53a10.19,10.19,0,0,1,1.75,10C154.74,290.91,154.84,292.93,154.84,292.93Z" style="fill:#BA68C8"></path><path d="M154.84,292.93a4.3,4.3,0,0,0,5.52-.39c2.74-2.51,2.8-15.33-5.26-17.53a10.19,10.19,0,0,1,1.75,10C154.74,290.91,154.84,292.93,154.84,292.93Z" style="opacity:0.30000000000000004"></path><path d="M138.69,287.67a8.73,8.73,0,0,0-1.18,3.93c0,2,8.2,5.62,8.2,5.62s-2.8-1.07-.71-1.67,6.05.79,9.84-2.62L145,288.66S140.56,285.22,138.69,287.67Z" style="fill:#BA68C8"></path><path d="M138.69,287.67a8.73,8.73,0,0,0-1.18,3.93c0,2,8.2,5.62,8.2,5.62s-2.8-1.07-.71-1.67,6.05.79,9.84-2.62L145,288.66S140.56,285.22,138.69,287.67Z" style="opacity:0.30000000000000004"></path><path d="M138.6,288.36s.2.23-1.74.45a4.92,4.92,0,0,1-4.24-2.35c-.39-.83,2-2.54,2.13-4.85s.55-7.53-1.52-7.8a3.45,3.45,0,0,1,4.73,2C139.41,279.27,137.64,286.57,138.6,288.36Z" style="fill:#BA68C8"></path><path d="M138.6,288.36s.2.23-1.74.45a4.92,4.92,0,0,1-4.24-2.35c-.39-.83,2-2.54,2.13-4.85s.55-7.53-1.52-7.8a3.45,3.45,0,0,1,4.73,2C139.41,279.27,137.64,286.57,138.6,288.36Z" style="opacity:0.30000000000000004"></path><path d="M137.26,274.62s-1,2.16,2.58-.12,4.85-3.16,4.85-3.16-.68-2.21.74-2.85a11,11,0,0,0,4.57-5.27,5.6,5.6,0,0,1-4.33.92c-2.55-.5-4.06-.32-4.78,3.6A11.57,11.57,0,0,1,137.26,274.62Z" style="fill:#BA68C8"></path><path d="M137.26,274.62s-1,2.16,2.58-.12,4.85-3.16,4.85-3.16-.68-2.21.74-2.85a11,11,0,0,0,4.57-5.27,5.6,5.6,0,0,1-4.33.92c-2.55-.5-4.06-.32-4.78,3.6A11.57,11.57,0,0,1,137.26,274.62Z" style="opacity:0.30000000000000004"></path><path d="M151.71,262.93s-1.49-1.71-3.9,3.67c-.84,1.88,11.7,6.08,11.7,6.08S159.75,261.42,151.71,262.93Z" style="fill:#BA68C8"></path><path d="M151.71,262.93s-1.49-1.71-3.9,3.67c-.84,1.88,11.7,6.08,11.7,6.08S159.75,261.42,151.71,262.93Z" style="opacity:0.30000000000000004"></path><path d="M159.47,273s1.4-1.36,4.23-.72,5.53,9.73,1.14,12.2c-2.54-7.37-7.54-8.5-7.54-8.5Z" style="fill:#BA68C8"></path><path d="M159.47,273s1.4-1.36,4.23-.72,5.53,9.73,1.14,12.2c-2.54-7.37-7.54-8.5-7.54-8.5Z" style="opacity:0.30000000000000004"></path><path d="M153,286s2.31-1.68.56-5.08l-1.44-3.45s-3.52-.16-4.93,1.19-.17,1.52-.17,1.52,2.33-1.86,3.4,1S150.14,287.52,153,286Z" style="fill:#BA68C8"></path><path d="M147.46,271.11s2.44-.61,5.57,1.61a8.58,8.58,0,0,1,3.4,5.92,5.75,5.75,0,0,0-4.22-1.86,75.86,75.86,0,0,0-8.06.26S142.07,273,147.46,271.11Z" style="fill:#BA68C8"></path><path d="M143.92,275.36a5.78,5.78,0,0,0-2.26,5.38c.6,3.34,3.52,5.75,3.33,7.92,0,0,2.6.55,2.55-1.45s-.6-7,1.78-8C149.32,279.25,147.61,274.19,143.92,275.36Z" style="fill:#BA68C8"></path><path d="M150.7,290.1a23.27,23.27,0,0,0,2.7-1.33c1.76-1.12,2.49-3.59,2.72-5.71.21-1.94.38-3.91.72-5.82.25-1.43.38-.91,1.24-1.43.68-.41.61-1,.13-1.63a12.56,12.56,0,0,0-1.87-1.63c-1.27-1.1-2.18-2.61-3.59-3.52-2.37-1.52-7-2.43-8.12,1.42-.34,1.14-.29,1.69-1.27,2.31a9,9,0,0,0-4.13,4.79,10.72,10.72,0,0,0,.2,8.25,9.76,9.76,0,0,0,2.34,3.16c1.25,1.12,2.7,1.24,4.19,1.64A6.86,6.86,0,0,0,150.7,290.1Z" style="fill:#BA68C8"></path><path d="M150.7,290.1a23.27,23.27,0,0,0,2.7-1.33c1.76-1.12,2.49-3.59,2.72-5.71.21-1.94.38-3.91.72-5.82.25-1.43.38-.91,1.24-1.43.68-.41.61-1,.13-1.63a12.56,12.56,0,0,0-1.87-1.63c-1.27-1.1-2.18-2.61-3.59-3.52-2.37-1.52-7-2.43-8.12,1.42-.34,1.14-.29,1.69-1.27,2.31a9,9,0,0,0-4.13,4.79,10.72,10.72,0,0,0,.2,8.25,9.76,9.76,0,0,0,2.34,3.16c1.25,1.12,2.7,1.24,4.19,1.64A6.86,6.86,0,0,0,150.7,290.1Z" style="opacity:0.5"></path><path d="M145,288.66c.66.58,6.09,2.08,8.85-2.31S155.1,275,155.1,275s4.66,3.32,4.51,8.6-3.6,9.77-6.56,9.88S145.33,292.15,145,288.66Z" style="fill:#BA68C8"></path><path d="M153.58,280.9a3,3,0,0,0-4.43-1.89c-3.45,1.52-5.45,4.71-6.11,1.91s-.19-6.13,2.91-7.1S153.64,275,153.58,280.9Z" style="fill:#BA68C8"></path><path d="M153,286s-2.79,2.81-5.67,1.12-2.18-5.14.76-6.8c0,0-1.08,2.14,1.19,4.38A5.08,5.08,0,0,0,153,286Z" style="fill:#BA68C8"></path><path d="M140,289.21c2.54,1.15,3.42-.54,2-3.84s-2.34-6.28-.62-8.69,6.07-5.57,6.07-5.57a13.79,13.79,0,0,1-4.5.08c-2.18-.4-6.26,3.35-7,8S136.6,287.68,140,289.21Z" style="fill:#BA68C8"></path><path d="M144.36,271.43s2-2.21,6.53-1.08,5.48,5.43,8.12,5.17,2.75-3.09-.16-6.43-6.16-3.76-10-3.17S143.7,270,144.36,271.43Z" style="fill:#BA68C8"></path><path d="M138.23,288.58c-.67,1.57-1.74,5.66,1,8.87s2.27,4.57,6.54,3.81,5.61.18,9.88-6.12a18.91,18.91,0,0,0-2.56,1.4c-2.48,1.43-6-.45-9.47-.77C139.14,295.35,138.23,288.58,138.23,288.58Z" style="fill:#BA68C8"></path><path d="M158.53,293.71c-1.48-.13.92-.47,2.95-3.06s4.21-7,3.49-10.9a12.62,12.62,0,0,0-4.07-7.46c.48-.33,2.21-.68,4.59.62,3.15,1.72,5.33,7.6,3.48,12.95S163.09,294.1,158.53,293.71Z" style="fill:#BA68C8"></path><path d="M151.71,262.93a7.9,7.9,0,0,1,7,1.9c3.25,2.94.77,7.73,2.45,7.4s3.13-1.7,2.25-5.09-3.19-6.09-6.09-6S152.55,260.76,151.71,262.93Z" style="fill:#BA68C8"></path><path d="M136.47,274.73c2.1,0,1.82-1.52,2.47-4.73s1.51-4.29,5.11-4.81a17,17,0,0,0,5.95-2,5.48,5.48,0,0,1-4.07-.53c-2.19-1.16-8-2.68-10.06,3.63S135.52,274.72,136.47,274.73Z" style="fill:#BA68C8"></path><path d="M136.86,288.81s-4.43,1.59-6.75-3.63,1.91-11.6,3.59-11.47,2.11,3.56,1,4.84-3.71,3.77-2.22,6.94A5.52,5.52,0,0,0,136.86,288.81Z" style="fill:#BA68C8"></path><path d="M159.06,311.71l1.69.54a12.91,12.91,0,0,0,1.56,4.2c1.16,1.83,5.32,3.35,6.58,1.72l2.8-3.63s1.28,1.59,2.15,1.2,2.9-5.65,2.74-7.05a2.72,2.72,0,0,0-.44-1.41s.23-.2-.28-1.35-.25-3.41-.09-4.94-1.49-3.23-3.21-3.41-3.62-.8-4-1.66-3.17-2.87-4.34-2-2.61,2-2.29,3.23a11,11,0,0,1-.19,3.62s-1.6-1.44-3-.13-3.07,5.37-2,7.23S159.06,311.71,159.06,311.71Z" style="fill:#BA68C8"></path><path d="M159.06,311.71l1.69.54a12.91,12.91,0,0,0,1.56,4.2c1.16,1.83,5.32,3.35,6.58,1.72l2.8-3.63s1.28,1.59,2.15,1.2,2.9-5.65,2.74-7.05a2.72,2.72,0,0,0-.44-1.41s.23-.2-.28-1.35-.25-3.41-.09-4.94-1.49-3.23-3.21-3.41-3.62-.8-4-1.66-3.17-2.87-4.34-2-2.61,2-2.29,3.23a11,11,0,0,1-.19,3.62s-1.6-1.44-3-.13-3.07,5.37-2,7.23S159.06,311.71,159.06,311.71Z" style="opacity:0.2"></path><path d="M160.21,311a3.61,3.61,0,0,0,.44,3.77c1.45,1.75,8.31,1.11,9.16-4.54,0,0-2.07,2.87-5.3,1.73S160.21,311,160.21,311Z" style="fill:#BA68C8"></path><path d="M160.21,311a3.61,3.61,0,0,0,.44,3.77c1.45,1.75,8.31,1.11,9.16-4.54,0,0-2.07,2.87-5.3,1.73S160.21,311,160.21,311Z" style="opacity:0.30000000000000004"></path><path d="M162.38,299.65a3.89,3.89,0,0,0-2.15-.6c-1.08.11-2.68,5.93-2.68,5.93s.46-2,.86-.58-.17,4.2,1.8,6.62l1.89-7S163.77,300.8,162.38,299.65Z" style="fill:#BA68C8"></path><path d="M162.38,299.65a3.89,3.89,0,0,0-2.15-.6c-1.08.11-2.68,5.93-2.68,5.93s.46-2,.86-.58-.17,4.2,1.8,6.62l1.89-7S163.77,300.8,162.38,299.65Z" style="opacity:0.30000000000000004"></path><path d="M162,299.63s-.12.15-.31-1.18a3.81,3.81,0,0,1,1.08-3c.43-.31,1.44,1.22,2.69,1.21s4,0,4.1-1.47c0,0,.94,2.18-.87,3.36S162.92,298.88,162,299.63Z" style="fill:#BA68C8"></path><path d="M162,299.63s-.12.15-.31-1.18a3.81,3.81,0,0,1,1.08-3c.43-.31,1.44,1.22,2.69,1.21s4,0,4.1-1.47c0,0,.94,2.18-.87,3.36S162.92,298.88,162,299.63Z" style="opacity:0.30000000000000004"></path><path d="M169.3,298s-1.19-.58.17,1.76,1.89,3.16,1.89,3.16,1.15-.58,1.55.36a6.29,6.29,0,0,0,3,2.86,4.6,4.6,0,0,1-.66-2.92c.16-1.78,0-2.81-2.12-3.09A5.68,5.68,0,0,1,169.3,298Z" style="fill:#BA68C8"></path><path d="M169.3,298s-1.19-.58.17,1.76,1.89,3.16,1.89,3.16,1.15-.58,1.55.36a6.29,6.29,0,0,0,3,2.86,4.6,4.6,0,0,1-.66-2.92c.16-1.78,0-2.81-2.12-3.09A5.68,5.68,0,0,1,169.3,298Z" style="opacity:0.30000000000000004"></path><path d="M176.14,307.28s.85-1.12-2.12-2.49c-1-.47-2.79,8.36-2.79,8.36S177.27,312.72,176.14,307.28Z" style="fill:#BA68C8"></path><path d="M176.14,307.28s.85-1.12-2.12-2.49c-1-.47-2.79,8.36-2.79,8.36S177.27,312.72,176.14,307.28Z" style="opacity:0.30000000000000004"></path><path d="M171.06,313.14a3.8,3.8,0,0,1,.55,2.87c-.23,2-5,4.31-6.48,1.43a8.11,8.11,0,0,0,4.25-5.63Z" style="fill:#BA68C8"></path><path d="M171.06,313.14a3.8,3.8,0,0,1,.55,2.87c-.23,2-5,4.31-6.48,1.43a8.11,8.11,0,0,0,4.25-5.63Z" style="opacity:0.30000000000000004"></path><path d="M163.86,309.4s1,1.5,2.74.11l1.79-1.17s-.06-2.42-.84-3.32-.82,0-.82,0a1.6,1.6,0,0,1-.38,2.38C164.87,308.25,162.92,307.51,163.86,309.4Z" style="fill:#BA68C8"></path><path d="M171.59,304.8a6.23,6.23,0,0,1-.63,3.91,4.61,4.61,0,0,1-3,2.64,4.53,4.53,0,0,0,.83-3c0-2-.46-5.52-.46-5.52S170.37,301.2,171.59,304.8Z" style="fill:#BA68C8"></path><path d="M169.17,302.59s-1.2-1.85-3-1.27-2.93,2.73-4.1,2.71c0,0-.19,1.81.88,1.68s3.73-.79,4.33.79C167.31,306.5,170,305.06,169.17,302.59Z" style="fill:#BA68C8"></path><path d="M161.56,308a16.83,16.83,0,0,0,.82,1.78,3.67,3.67,0,0,0,3.17,1.56c1,0,2.1.06,3.14.19.78.1.5.21.81.77s.55.37.88,0a8.46,8.46,0,0,0,.8-1.37,25.14,25.14,0,0,0,1.73-2.65c.73-1.71,1-4.93-1.08-5.51-.62-.17-.91-.11-1.29-.74a5.1,5.1,0,0,0-2.72-2.58,4.63,4.63,0,0,0-4.41.57,5.94,5.94,0,0,0-1.59,1.78,7.44,7.44,0,0,0-.71,3A5.87,5.87,0,0,0,161.56,308Z" style="fill:#BA68C8"></path><path d="M161.56,308a16.83,16.83,0,0,0,.82,1.78,3.67,3.67,0,0,0,3.17,1.56c1,0,2.1.06,3.14.19.78.1.5.21.81.77s.55.37.88,0a8.46,8.46,0,0,0,.8-1.37,25.14,25.14,0,0,0,1.73-2.65c.73-1.71,1-4.93-1.08-5.51-.62-.17-.91-.11-1.29-.74a5.1,5.1,0,0,0-2.72-2.58,4.63,4.63,0,0,0-4.41.57,5.94,5.94,0,0,0-1.59,1.78,7.44,7.44,0,0,0-.71,3A5.87,5.87,0,0,0,161.56,308Z" style="opacity:0.5"></path><path d="M162.1,304c-.28.48-.87,4.29,1.6,6s6.11.26,6.11.26-1.59,3.37-4.42,3.55-5.37-1.95-5.55-4S160.25,304.45,162.1,304Z" style="fill:#BA68C8"></path><path d="M166.6,309.51s1.79-.85.83-3.14-2.74-3.49-1.27-4.09,3.28-.45,3.92,1.63S169.77,309.24,166.6,309.51Z" style="fill:#BA68C8"></path><path d="M163.86,309.4a4,4,0,0,1-.83-3.83c.79-2.06,2.66-1.77,3.67.16,0,0-1.19-.63-2.29,1A4.29,4.29,0,0,0,163.86,309.4Z" style="fill:#BA68C8"></path><path d="M161.61,300.63c-.52,1.81.42,2.32,2.14,1.18s3.26-1.94,4.62-.89a21.67,21.67,0,0,1,3.22,3.88,12.24,12.24,0,0,1-.22-3.09c.12-1.52-2-4.12-4.54-4.36S162.29,298.21,161.61,300.63Z" style="fill:#BA68C8"></path><path d="M171.29,302.68s1.27,1.27.84,4.43-2.68,4.05-2.43,5.85,1.76,1.73,3.43-.45,1.77-4.43,1.29-7S172,302.15,171.29,302.68Z" style="fill:#BA68C8"></path><path d="M161.87,299.38a3.86,3.86,0,0,0-4.7,1.18c-1.61,2.07-2.35,1.79-1.78,4.69s.13,3.86,3.67,6.46a11.37,11.37,0,0,0-.85-1.69c-.86-1.63,0-4.15,0-6.54C158.29,300.37,161.87,299.38,161.87,299.38Z" style="fill:#BA68C8"></path><path d="M160,313.6c0-1,.28.6,1.75,1.86s3.9,2.52,6,1.81a7,7,0,0,0,3.83-3.18,4.25,4.25,0,0,1-.15,3.18,5.54,5.54,0,0,1-6.79,3.08A6.77,6.77,0,0,1,160,313.6Z" style="fill:#BA68C8"></path><path d="M176.14,307.28a6.74,6.74,0,0,1-.74,4.91c-1.44,2.38-4.1.94-3.86,2.07s1,2.06,2.81,1.28a4.72,4.72,0,0,0,3-4.51C177.19,309,177.34,307.74,176.14,307.28Z" style="fill:#BA68C8"></path><path d="M169.22,297.44c.07,1.45.88,1.17,2.62,1.44s2.36.82,2.78,3.26a13.45,13.45,0,0,0,1.29,4,4.84,4.84,0,0,1,.12-2.82c.54-1.57,1.12-5.65-2.34-6.72S169.18,296.79,169.22,297.44Z" style="fill:#BA68C8"></path><path d="M161.7,298.45a4.27,4.27,0,0,1,1.67-4.82c2.7-1.87,6.28.69,6.28,1.85s-1.82,1.65-2.55.95-2.17-2.34-3.8-1.15A4.14,4.14,0,0,0,161.7,298.45Z" style="fill:#BA68C8"></path><path d="M110.31,321.48l2.1.87a16.65,16.65,0,0,0,1.63,5.49c1.32,2.45,6.47,4.82,8.21,2.88l3.84-4.32s1.49,2.16,2.63,1.76,4.14-6.87,4.05-8.66a3.48,3.48,0,0,0-.44-1.84s.31-.23-.24-1.75,0-4.35.28-6.28-1.62-4.25-3.78-4.66-4.53-1.4-4.91-2.54-3.79-4-5.34-3-3.46,2.25-3.17,3.86a14.06,14.06,0,0,1-.53,4.58s-1.92-2-3.82-.48-4.34,6.5-3.15,9S110.31,321.48,110.31,321.48Z" style="fill:#BA68C8"></path><path d="M110.31,321.48l2.1.87a16.65,16.65,0,0,0,1.63,5.49c1.32,2.45,6.47,4.82,8.21,2.88l3.84-4.32s1.49,2.16,2.63,1.76,4.14-6.87,4.05-8.66a3.48,3.48,0,0,0-.44-1.84s.31-.23-.24-1.75,0-4.35.28-6.28-1.62-4.25-3.78-4.66-4.53-1.4-4.91-2.54-3.79-4-5.34-3-3.46,2.25-3.17,3.86a14.06,14.06,0,0,1-.53,4.58s-1.92-2-3.82-.48-4.34,6.5-3.15,9S110.31,321.48,110.31,321.48Z" style="opacity:0.2"></path><path d="M111.83,320.73a4.61,4.61,0,0,0,.24,4.83c1.69,2.37,10.44,2.29,12-4.8,0,0-2.86,3.43-6.86,1.65S111.83,320.73,111.83,320.73Z" style="fill:#BA68C8"></path><path d="M111.83,320.73a4.61,4.61,0,0,0,.24,4.83c1.69,2.37,10.44,2.29,12-4.8,0,0-2.86,3.43-6.86,1.65S111.83,320.73,111.83,320.73Z" style="opacity:0.30000000000000004"></path><path d="M115.51,306.52a5.05,5.05,0,0,0-2.68-1c-1.37,0-3.88,7.25-3.88,7.25s.75-2.47,1.14-.64-.57,5.3,1.74,8.59l3-8.68S117.18,308.13,115.51,306.52Z" style="fill:#BA68C8"></path><path d="M115.51,306.52a5.05,5.05,0,0,0-2.68-1c-1.37,0-3.88,7.25-3.88,7.25s.75-2.47,1.14-.64-.57,5.3,1.74,8.59l3-8.68S117.18,308.13,115.51,306.52Z" style="opacity:0.30000000000000004"></path><path d="M115,306.45s-.16.18-.3-1.52a4.79,4.79,0,0,1,1.63-3.74c.57-.35,1.72,1.7,3.3,1.82s5.13.39,5.33-1.43c0,0,1,2.86-1.38,4.17S116.27,305.59,115,306.45Z" style="fill:#BA68C8"></path><path d="M115,306.45s-.16.18-.3-1.52a4.79,4.79,0,0,1,1.63-3.74c.57-.35,1.72,1.7,3.3,1.82s5.13.39,5.33-1.43c0,0,1,2.86-1.38,4.17S116.27,305.59,115,306.45Z" style="opacity:0.30000000000000004"></path><path d="M124.42,305.13s-1.46-.86.07,2.26,2.13,4.21,2.13,4.21,1.52-.62,1.94.62a8.3,8.3,0,0,0,3.58,3.94,5.88,5.88,0,0,1-.61-3.78c.36-2.24.24-3.56-2.43-4.15A7.36,7.36,0,0,1,124.42,305.13Z" style="fill:#BA68C8"></path><path d="M124.42,305.13s-1.46-.86.07,2.26,2.13,4.21,2.13,4.21,1.52-.62,1.94.62a8.3,8.3,0,0,0,3.58,3.94,5.88,5.88,0,0,1-.61-3.78c.36-2.24.24-3.56-2.43-4.15A7.36,7.36,0,0,1,124.42,305.13Z" style="opacity:0.30000000000000004"></path><path d="M132.33,317.66s1.17-1.33-2.49-3.38c-1.27-.72-4.21,10.32-4.21,10.32S133.31,324.68,132.33,317.66Z" style="fill:#BA68C8"></path><path d="M132.33,317.66s1.17-1.33-2.49-3.38c-1.27-.72-4.21,10.32-4.21,10.32S133.31,324.68,132.33,317.66Z" style="opacity:0.30000000000000004"></path><path d="M125.41,324.57a4.92,4.92,0,0,1,.46,3.7c-.46,2.49-6.67,4.94-8.34,1.12a10,10,0,0,0,5.85-6.69Z" style="fill:#BA68C8"></path><path d="M125.41,324.57a4.92,4.92,0,0,1,.46,3.7c-.46,2.49-6.67,4.94-8.34,1.12a10,10,0,0,0,5.85-6.69Z" style="opacity:0.30000000000000004"></path><path d="M116.59,319.05s1.13,2,3.46.44l2.36-1.3s.13-3.09-.79-4.3-1-.13-1-.13,1.26,2-.68,3S115.55,316.55,116.59,319.05Z" style="fill:#BA68C8"></path><path d="M126.76,314a7.9,7.9,0,0,1-1.12,4.9,5.71,5.71,0,0,1-4.06,3,5.72,5.72,0,0,0,1.29-3.71c.13-2.58-.13-7.06-.13-7.06S125.51,309.33,126.76,314Z" style="fill:#BA68C8"></path><path d="M123.88,311s-1.38-2.48-3.66-1.92-3.94,3.15-5.42,3c0,0-.39,2.28,1,2.22s4.78-.6,5.42,1.47C121.2,315.74,124.66,314.19,123.88,311Z" style="fill:#BA68C8"></path><path d="M113.79,317.07a22.22,22.22,0,0,0,.89,2.35,4.77,4.77,0,0,0,3.88,2.32c1.33.16,2.66.29,4,.57,1,.21.62.32,1,1.07.27.59.66.52,1.11.09a10,10,0,0,0,1.12-1.65,30.26,30.26,0,0,0,2.42-3.18c1.06-2.09,1.71-6.15-.92-7.1-.77-.29-1.15-.24-1.57-1.09a6.73,6.73,0,0,0-3.24-3.57,5.89,5.89,0,0,0-5.64.27,7.28,7.28,0,0,0-2.16,2.09,9.33,9.33,0,0,0-1.15,3.68A7.53,7.53,0,0,0,113.79,317.07Z" style="fill:#BA68C8"></path><path d="M113.79,317.07a22.22,22.22,0,0,0,.89,2.35,4.77,4.77,0,0,0,3.88,2.32c1.33.16,2.66.29,4,.57,1,.21.62.32,1,1.07.27.59.66.52,1.11.09a10,10,0,0,0,1.12-1.65,30.26,30.26,0,0,0,2.42-3.18c1.06-2.09,1.71-6.15-.92-7.1-.77-.29-1.15-.24-1.57-1.09a6.73,6.73,0,0,0-3.24-3.57,5.89,5.89,0,0,0-5.64.27,7.28,7.28,0,0,0-2.16,2.09,9.33,9.33,0,0,0-1.15,3.68A7.53,7.53,0,0,0,113.79,317.07Z" style="opacity:0.5"></path><path d="M114.8,312.05c-.4.59-1.46,5.36,1.53,7.73s7.73,1,7.73,1-2.29,4.12-5.9,4-6.64-3-6.7-5.63S112.41,312.39,114.8,312.05Z" style="fill:#BA68C8"></path><path d="M120.05,319.49s2.34-.89,1.32-3.9-3.19-4.72-1.28-5.33,4.19-.23,4.83,2.48S124.09,319.48,120.05,319.49Z" style="fill:#BA68C8"></path><path d="M116.59,319.05s-1.91-2.41-.74-4.94,3.52-2,4.64.58c0,0-1.46-.92-3,1.09A5.39,5.39,0,0,0,116.59,319.05Z" style="fill:#BA68C8"></path><path d="M114.45,307.69c-.8,2.24.35,3,2.62,1.71s4.29-2.11,5.93-.64a28.14,28.14,0,0,1,3.76,5.27,15.64,15.64,0,0,1,0-3.95c.28-1.91-2.25-5.45-5.4-6S115.52,304.69,114.45,307.69Z" style="fill:#BA68C8"></path><path d="M126.56,311.31s1.5,1.75.7,5.71-3.73,4.86-3.57,7.17,2.1,2.38,4.39-.21,2.6-5.43,2.22-8.79S127.54,310.72,126.56,311.31Z" style="fill:#BA68C8"></path><path d="M114.89,306.13a4.86,4.86,0,0,0-6.06,1c-2.2,2.46-3.13,2-2.63,5.77s-.16,4.91,4.11,8.59a15.55,15.55,0,0,0-.93-2.23c-1-2.16.33-5.28.57-8.31C110.26,307,114.89,306.13,114.89,306.13Z" style="fill:#BA68C8"></path><path d="M111.28,324c.09-1.3.31.8,2.07,2.55s4.73,3.61,7.42,2.93a8.63,8.63,0,0,0,5.12-3.64,5.48,5.48,0,0,1-.45,4,6.92,6.92,0,0,1-8.86,3.19A8.8,8.8,0,0,1,111.28,324Z" style="fill:#BA68C8"></path><path d="M132.33,317.66a8.54,8.54,0,0,1-1.34,6.15c-2,2.88-5.28.76-5.06,2.23s1.14,2.72,3.45,1.92a5.87,5.87,0,0,0,4.16-5.41C133.52,320,133.81,318.37,132.33,317.66Z" style="fill:#BA68C8"></path><path d="M124.36,304.43c0,1.85,1,1.58,3.21,2.11s2.92,1.28,3.26,4.43a17.34,17.34,0,0,0,1.31,5.19,6.05,6.05,0,0,1,.38-3.57c.81-1.93,1.88-7-2.42-8.78S124.37,303.6,124.36,304.43Z" style="fill:#BA68C8"></path><path d="M114.74,304.93a5.39,5.39,0,0,1,2.52-5.95c3.58-2.1,7.9,1.54,7.81,3s-2.44,1.9-3.31.94-2.56-3.2-4.73-1.86A5.18,5.18,0,0,0,114.74,304.93Z" style="fill:#BA68C8"></path></g><g id="freepik--Card--inject-379"><path d="M95.25,421.73h0l.06,0h.2a1.06,1.06,0,0,0,.44-.11h0l0,0,.06,0h0l32.07-22.27,1.62-.94.07,0a3.11,3.11,0,0,0,1.33-1.52l-.11-.07.11.05a2.52,2.52,0,0,0,0-1.63h0l-.82-2.65-16.23-52.21a0,0,0,0,0,0,0,1.76,1.76,0,0,0-1-.81h0l0,0a2.21,2.21,0,0,0-1.75.11h0l-.58.34L78.43,362.31l-.63.37a1.67,1.67,0,0,0-.71.82,1.37,1.37,0,0,0-.07.93h0l15.39,49.5,2.25,7.26,0,0a.84.84,0,0,0,.51.47Z" style="fill:#263238"></path><path d="M95.25,421.73h0l.06,0h.2a1.06,1.06,0,0,0,.44-.11h0l0,0,.06,0h0l35.58-20.7,1.62-.94.07-.05a3,3,0,0,0,1.33-1.51l-.11-.08.12.05a2.59,2.59,0,0,0,0-1.63h0l-.83-2.66-16.22-52.21a0,0,0,0,1,0,0,1.8,1.8,0,0,0-1-.82h-.05a2.13,2.13,0,0,0-1.75.11h0l-.59.34L78.43,362.31l-.63.37a1.67,1.67,0,0,0-.71.82,1.37,1.37,0,0,0-.07.93h0l15.39,49.5,2.25,7.26,0,0a.84.84,0,0,0,.51.47Z" style="fill:#BA68C8"></path><path d="M101.38,355.2c-3.83-.39-6.77,4.53-5.92,10.62-2.59-5.09-7.2-5.61-9.66-1.56s1.37,14.33,14.19,16.28C107.9,366.53,105.2,355.59,101.38,355.2Z" style="fill:#BA68C8"></path><path d="M101.38,355.2c-3.83-.39-6.77,4.53-5.92,10.62-2.59-5.09-7.2-5.61-9.66-1.56s1.37,14.33,14.19,16.28C107.9,366.53,105.2,355.59,101.38,355.2Z" style="fill:#fff;opacity:0.5"></path><path d="M101.14,368.12a3.78,3.78,0,0,0-.18-.42.37.37,0,0,1,.2-.4.51.51,0,0,1,.79.27l1.67,5.15c.43,1.33.95,1.66,1.58,1.3a1.72,1.72,0,0,0,.59-2c-.4-1.25-1.26-1.2-1.94-.81-.19.11-.71-.83-.39-1a2.84,2.84,0,0,0,.94-3.45,1.61,1.61,0,0,0-2.53-1.07c-1.72,1-1.94,2.87-1.39,4.56.39,1.22.92,1.43,1,1.46s.18,0,.22.1.09,1.33-.32,1.21a3.45,3.45,0,0,1-1.64-2.22c-.84-2.59-.07-5,1.83-6.15,1.62-.93,3.06-.36,3.7,1.61a4.38,4.38,0,0,1-.42,3.78c.7-.12,1.43.28,1.82,1.48a3,3,0,0,1-1.1,3.48c-1.4.81-2.19-.1-2.74-1.81Z" style="fill:#f5f5f5"></path><path d="M108.38,370.93a.89.89,0,0,0,1.27.28,2.31,2.31,0,0,0,.74-2.5c-.1-.68.59-.75.7-.24.2.89.32,2.82-1.26,3.73-1,.56-2.22.08-2.78-1.66s-.19-3.55.64-4c.6-.35,1.15,0,1.42.84A3.85,3.85,0,0,1,108.38,370.93Zm-.38-.69a2.76,2.76,0,0,0,.27-2.38c-.09-.31-.24-.44-.38-.36-.52.3-.19,1.92,0,2.5A2.34,2.34,0,0,1,108,370.24Z" style="fill:#f5f5f5"></path><path d="M110.41,368.81c-.09-.67-.12-1.59-.16-2.44a1.11,1.11,0,0,1-.39-.55,2,2,0,0,1,.56-1.62c.26-.15.46,0,.59.4a4,4,0,0,1,0,1.09c.87.86,1.69,1,2.11,2.31a2.38,2.38,0,0,1,.11.53,1.9,1.9,0,0,0,.56-1.51c0-.31,0-.46.12-.52s.5.14.57.34a2.66,2.66,0,0,1-.15,1.35,3.13,3.13,0,0,1-1.22,1.49,2.06,2.06,0,0,1-.89,1.11,1.66,1.66,0,0,1-1.36.1c-.74-.35-.69-1.26-.45-1.39s1.45.12,2-.19a1.84,1.84,0,0,0,0-1,2.5,2.5,0,0,0-1.4-1.52,16.88,16.88,0,0,0,.13,1.92C111.2,369.38,110.48,369.34,110.41,368.81Z" style="fill:#f5f5f5"></path><path d="M112.45,362.53l-.76-2.34c-.13-.4-.25-.37-.28-.47s.14-.26.29-.35a.5.5,0,0,1,.78.28l.78,2.43c.66-.38,1.4-.83,2.12-1.29.16-.59.5.8.22,1-.85.52-1.48.88-2,1.21l1.42,4.4c.15.44.35.56.57.43.43-.25.34-1.25.23-1.91,0-.32,0-.51.13-.57s.47.09.56.35c0,0,0,.05,0,.11.11,1,.09,2.51-.83,3-.58.33-1.13.12-1.49-1l-1.43-4.41c-.47.27-.74.4-.74.4-.35.2-.84-.62-.53-.8Z" style="fill:#f5f5f5"></path><path d="M102.75,392.2c-.67.35-1.67-.22-2.36-2.35l-4-12.47c-.67-2.05-1.37-1.64-1.64-1.48s-1,.57-.25,2.89l4.71,14.54a.14.14,0,0,1,.15.08c.09.27-.47,1-1,1.34-.27.16-.52.3-.69-.21l-4.89-15.08c-.66-2-1.32-1.67-1.64-1.49s-1,.58-.33,2.62l3.87,11.94c.77,2.37.56,4-.6,4.69-.77.45-1.24-.24-1.4-.73-.07-.24.25-.23.49-.54s.33-1.11-.24-2.89L89.25,381.8c-1-3.15-.06-5.05,1.19-5.77a2.16,2.16,0,0,1,2.26,0A2.72,2.72,0,0,1,94,374c1.29-.74,3-.39,4,2.76l3.89,12c.37,1.13,1,1.5,1.61,1.54C104,390.31,103.47,391.82,102.75,392.2Z" style="fill:#f5f5f5"></path><path d="M112.39,381.39a4,4,0,0,1-1.65,4.12,3,3,0,0,1-1.08.4,4.09,4.09,0,0,1-1.86,3.37c-2.1,1.21-3.78-.56-4.66-3.26-1.28-4-.4-7.31.06-7.58s1.42.88,1,1.65a8.91,8.91,0,0,0,.44,4.86c.73,2.26,1.78,3,2.59,2.53a2,2,0,0,0,.9-1.73,6,6,0,0,1-3-3.93c-.55-1.7-.46-3.48.66-4.12s2.38.89,3.23,3.5a14.2,14.2,0,0,1,.65,3.08,1.23,1.23,0,0,0,.44-.19,2.53,2.53,0,0,0,.86-2.8C110.84,380.62,112.17,379.72,112.39,381.39Zm-4.4,2.38c-.1-.45-.21-.87-.34-1.27-.6-1.83-1.1-3.15-1.53-2.89-.23.13-.22.63,0,1.47A5.39,5.39,0,0,0,108,383.77Z" style="fill:#f5f5f5"></path><path d="M122.07,381.05c-1.1.63-2.12-.16-2.57-1.53l-1.77-5.47c-.27-.83-.54-1.51-.89-1.31-.56.33-1,3.33-.43,5.53l1.27,3.93c.17.51.4,1.15-.2,1.5-.42.24-1.06.38-1.38-.61l-2.21-6.82c-.27-.83-.54-1.51-.89-1.31-.56.33-1,3.33-.43,5.53l1.27,3.93c.17.51.4,1.15-.2,1.49-.42.24-1.06.39-1.39-.61l-2.76-8.53a5.57,5.57,0,0,0-.37-.82.74.74,0,0,1,.4-.77,1,1,0,0,1,1.5.54l.37,1.13c.07-1.77.43-3.32,1.36-3.86,1.25-.72,2,.4,2.46,1.59.06-1.73.43-3.25,1.36-3.79,1.35-.78,2.15.52,2.55,1.76l1.8,5.57c.08.25.41,1.24,1,.93.83-.48.64-2.42.44-3.71-.1-.61,0-1,.24-1.1s.92.18,1.09.69c0,0,0,.08,0,.2C123.88,377.12,123.85,380,122.07,381.05Z" style="fill:#f5f5f5"></path><path d="M102.93,405.34a.26.26,0,0,1,.27,0,.4.4,0,0,1,.2.24l.54,1.68a.53.53,0,0,1,0,.35.44.44,0,0,1-.19.26L98,411.19a.29.29,0,0,1-.27,0,.41.41,0,0,1-.19-.25l-3.3-10.19a.53.53,0,0,1,0-.35.4.4,0,0,1,.19-.26l5.66-3.28a.28.28,0,0,1,.28,0,.39.39,0,0,1,.19.24l.54,1.67a.56.56,0,0,1,0,.36.44.44,0,0,1-.19.26l-3.74,2.16.55,1.71,3.48-2a.26.26,0,0,1,.27,0,.39.39,0,0,1,.19.24l.54,1.68a.53.53,0,0,1,0,.35.4.4,0,0,1-.19.26l-3.47,2,.57,1.77Z" style="fill:#f5f5f5"></path><path d="M108.06,405.38c-.32.18-.6.09-.85-.26l-5.68-8.43-.08-.12a.14.14,0,0,1,0-.06.48.48,0,0,1,0-.29.4.4,0,0,1,.15-.22l1.53-.88c.17-.09.3-.12.4-.07a.65.65,0,0,1,.21.19l3.94,6-.56-7.91a.85.85,0,0,1,0-.34.58.58,0,0,1,.31-.33l1.53-.89a.22.22,0,0,1,.22,0,.33.33,0,0,1,.16.2.13.13,0,0,1,0,.06,1.32,1.32,0,0,1,0,.16l.71,11.3a1,1,0,0,1-.44,1Z" style="fill:#f5f5f5"></path><path d="M119.22,395.93a.26.26,0,0,1,.27,0,.41.41,0,0,1,.2.24l.54,1.67a.73.73,0,0,1,0,.36.44.44,0,0,1-.19.26l-5.77,3.33a.26.26,0,0,1-.27,0,.38.38,0,0,1-.2-.24l-3.3-10.19a.63.63,0,0,1,0-.36.47.47,0,0,1,.19-.26l5.67-3.27a.29.29,0,0,1,.27,0,.39.39,0,0,1,.2.25l.54,1.67a.55.55,0,0,1,0,.36.47.47,0,0,1-.19.26l-3.75,2.16.55,1.7,3.48-2a.28.28,0,0,1,.28,0,.37.37,0,0,1,.19.24l.54,1.67a.56.56,0,0,1,0,.36.44.44,0,0,1-.19.26l-3.48,2,.58,1.76Z" style="fill:#f5f5f5"></path><path d="M121.81,384.33a5,5,0,0,1,1.51-.61,2.53,2.53,0,0,1,1.29,0,2.29,2.29,0,0,1,1,.73,4.59,4.59,0,0,1,.75,1.47,5,5,0,0,1,.26,2.18A4,4,0,0,1,126,390l2.72,2.88a.29.29,0,0,1,.09.16.48.48,0,0,1,0,.29.41.41,0,0,1-.15.21l-1.66.95a.39.39,0,0,1-.39.06,1.26,1.26,0,0,1-.25-.19l-2.45-2.6-1.12.65,1.1,3.38a.69.69,0,0,1,0,.35.48.48,0,0,1-.19.26l-1.6.92a.26.26,0,0,1-.27,0,.39.39,0,0,1-.19-.24l-3.31-10.2a.69.69,0,0,1,0-.35.44.44,0,0,1,.19-.26Zm.17,5.57,1.38-.79a2.08,2.08,0,0,0,.76-.74,1.36,1.36,0,0,0,0-1.11c-.14-.44-.35-.69-.63-.72a1.43,1.43,0,0,0-.93.23l-1.37.79Z" style="fill:#f5f5f5"></path></g></g><g id="freepik--Characters--inject-379"><g id="freepik--characters--inject-379"><g id="freepik--Bottom--inject-379"><g id="freepik--Leg--inject-379"><path d="M337.31,361.87c0,1.65.82,4.26,2.79,5.35,6.12,3.42,15,4.1,22.31,1.84,8.39-2.59,12.21-7,13.84-12.72a33.54,33.54,0,0,0-.07-19.82c-1.53-5-.63-11.73,0-16.78,1.06-8.6-.68-13.77-3.47-17.72a12.15,12.15,0,0,0-13.84-4.62l1.66,59.05Z"></path><path d="M347.66,335.66c.06,7.75-1.73,10.54-5.12,15.14-3,4-10.72,10.39-.8,15.27,7.73,3.8,26.93,3.39,32.05-9.4,4-9.93-2-19.22-.53-32.24,1-8.74.22-24-9.93-26.33-5.54-1.27-7.34-1.17-16,3.28-6,3.09-6.54,4.48-6.3,5.29l1.47-.68A11.08,11.08,0,0,1,354,310.94c3.49,5.47,3.92,13.57.16,18.9Z" style="fill:#263238"></path><path d="M343.08,350.05c7.57-5.83,25.2-2.43,28.6,2.34s2.23,7.23,0,9.56-10,8-22.51,6.65-12.75-6-13-7.92S339.77,353.36,343.08,350.05Z" style="fill:#fafafa"></path><path d="M355.58,310.23c-4.84-8.75-11.38-8.16-11.38-8.16l-31.65,16.12s69.53-63.84,67.3-73.05l-95.05-4.39S242,322,237,349.33c-2.95,16.11-1.33,27.36,6.27,33.42,12.87,10.27,27.77,5.86,51.34-8.32C318.44,360.08,356,337.91,356,337.91S363.22,324,355.58,310.23Z" style="fill:#37474f"></path><path d="M356.84,312.81a25.5,25.5,0,0,0-1.26-2.58c-.3-.55-.61-1.05-.92-1.53l-.26-.36c-.23-.33-.46-.67-.69-1l-.26-.29c-.23-.29-.47-.59-.71-.84-.08-.09-.15-.15-.23-.23l-.74-.74-.19-.16c-.26-.22-.52-.45-.78-.64l-.16-.12c-.26-.19-.52-.38-.78-.54l-.13-.08-.78-.45-.1,0-.77-.36-.08,0c-.25-.1-.5-.2-.73-.27l0,0c-.24-.08-.47-.15-.69-.2h0c-.22-.06-.43-.1-.62-.14h0c-.19,0-.37-.06-.53-.08h0l-.42,0h-.64l-4.57,2.33-27.08,13.79h0s5.84-10.52,10.82-21.63l0,0h0l.6-1.35v0l0-.06.57-1.3,0-.07c.88-2.06,1.72-4.11,2.46-6.09l.05-.12c.24-.64.47-1.28.69-1.91L290,267.81c2.46,14.23,16.1,27.92,16.1,27.92s-21.9,46.16-29.72,66.51c-6.14,16-18.16,20.7-28.35,18.23-9.08-2.21-11.5-9.16-11.78-10.09,1,5.3,3.31,9.45,7,12.37,12.87,10.27,27.77,5.86,51.34-8.32,23.84-14.34,61.4-36.51,61.42-36.52h0s5.93-11.39,1.35-23.81C357.2,313.67,357,313.24,356.84,312.81Z" style="fill:#263238"></path><path d="M311.07,337.71c9.37-12,35.28-28.42,41-32.16-3.94-3.77-7.75-3.49-7.84-3.48h0l-15.83,8.06-15.82,8.06s-15.3,33.09-27.75,38.13A59,59,0,0,0,311.07,337.71Z" style="opacity:0.15"></path></g><g id="freepik--Le--inject-379"><path d="M378.07,386.65c0,1.66.55,4.39,2.52,5.48,6.12,3.42,15.63,4.34,23,2.08,8.4-2.59,12.44-7.35,14.08-13.09s1.08-11-.61-18.83c-1.2-5.55-.62-12.41,0-17.46,1.06-8.6-.76-14.07-3.55-18a12.14,12.14,0,0,0-13.83-4.63l1.65,59.05Z" style="fill:#263238"></path><path d="M388.42,360.44c.06,7.75-1.72,10.55-5.11,15.14-3,4-10.73,10.4-.81,15.28,7.73,3.8,26.93,3.39,32.06-9.4,4-9.93-2-19.23-.54-32.25,1-8.74.22-24-9.92-26.32-5.54-1.28-7.35-1.18-16,3.27-6,3.09-6.54,4.48-6.3,5.29l1.48-.67a11.08,11.08,0,0,1,11.54,4.94c3.5,5.47,3.93,13.57.17,18.9Z" style="fill:#37474f"></path><path d="M384,374.4c7.58-5.83,25.21-2.44,28.61,2.34s2.23,7.22,0,9.56-10,8-22.52,6.65-12.74-6-12.95-7.92S380.69,377.71,384,374.4Z" style="fill:#fafafa"></path><path d="M387.52,368.11c4.81-2.75,16.07-2.15,19.17,0,0-2.32-2.9-3.95-9.35-3.95S387.52,366.09,387.52,368.11Z" style="fill:#fafafa"></path><path d="M388.41,361.87c4.81-2.75,16.07-2.15,19.17,0,0-2.32-2.9-3.95-9.35-3.95S388.41,359.85,388.41,361.87Z" style="fill:#fafafa"></path><path d="M383.24,330.78l-24.63,10.41,13.48,33.21,16.33-14,6.53-5.82s5.73-5.11,2.86-14.45S390.39,328.41,383.24,330.78Z" style="fill:#b16668"></path><path d="M380.38,347.12a23.32,23.32,0,0,0-10.17-11.55l-8.38,4.24s12.83-19.68,18.08-33.08c6.21-15.87,11.65-35.79-.06-61.59l-61.39,10.32-34.61-4.05c5.49,26.64,30.14,42.53,30.14,42.53s-27.55,57.94-31.86,75.84c-4.05,16.86-1.18,29.56,6.42,35.63,12.87,10.27,30.77,10.48,53.14-5.53,21.21-15.17,42.12-35.35,42.12-35.35S385.2,359,380.38,347.12Z" style="fill:#37474f"></path><path d="M370.21,335.57l-8.37,4.24h0S342.54,373.94,330.1,379c0,0,15.91-4.37,26.27-18.6C363.13,351.07,370.21,335.57,370.21,335.57Z" style="fill:#263238"></path></g><path d="M271.5,300.06l-8.42,20c-2.74,6.69-5.43,13.38-7.85,20.17-1.24,3.38-2.38,6.8-3.45,10.23-.51,1.73-1.08,3.44-1.55,5.17l-.69,2.61c-.23.86-.49,1.73-.67,2.6-1.67,7-2.89,14.1-2.58,21.37l-.41-2.7c-.06-.45-.13-.9-.18-1.36l-.06-1.36-.11-2.74.1-2.74A76.62,76.62,0,0,1,247,360.46a140.4,140.4,0,0,1,5.92-21q3.74-10.26,8.42-20.11C264.42,312.74,267.79,306.3,271.5,300.06Z" style="fill:#263238"></path><path d="M317.17,323.07l-8.42,20c-2.74,6.68-5.43,13.38-7.85,20.17-1.24,3.38-2.38,6.8-3.45,10.23-.51,1.72-1.08,3.44-1.55,5.17l-.69,2.6c-.23.87-.49,1.74-.68,2.61-1.66,7-2.88,14.1-2.57,21.37l-.41-2.7c-.06-.45-.13-.9-.18-1.36l-.06-1.36-.11-2.74.1-2.74a76.62,76.62,0,0,1,1.34-10.88,140.4,140.4,0,0,1,5.92-21q3.74-10.26,8.42-20.11C310.09,335.75,313.46,329.31,317.17,323.07Z" style="fill:#263238"></path><path d="M355,251.3a32.85,32.85,0,0,1,4.62,10.91,63.91,63.91,0,0,1,1.7,11.75c.1,2,.12,4,.09,5.93s-.14,3.94-.35,5.91a56.56,56.56,0,0,1-2.2,11.6c.17-3.94.25-7.82.26-11.7,0-1,0-1.94,0-2.91s0-1.94-.05-2.9c-.05-1.94-.09-3.87-.22-5.8q-.28-5.77-1.11-11.5A59.9,59.9,0,0,0,355,251.3Z" style="fill:#263238"></path><path d="M364.24,254a12.56,12.56,0,0,1,2.54,3.37c.33.62.63,1.25.94,1.88s.54,1.3.81,2a50.13,50.13,0,0,1,3.17,16.37,23.35,23.35,0,0,1-1.17,8.3,66.16,66.16,0,0,0-.77-8.15c-.12-.66-.22-1.33-.31-2s-.23-1.34-.35-2c-.23-1.34-.44-2.67-.74-4s-.52-2.65-.8-4l-.42-2c-.17-.65-.32-1.32-.46-2A40,40,0,0,0,364.24,254Z" style="fill:#263238"></path></g><path id="freepik--Arm--inject-379" d="M291.57,126.56a31.18,31.18,0,0,1,16.63,5.34c2.89,2.14,11.74,10.19,11.74,10.19l4.88,4.74s20.46-19.5,27.41-20.66V150.7s-6.63,14-11.37,19.9c-3.31,4.09-7,7-13.27,3.23s-30.36-20.23-30.36-20.23Z" style="fill:#9a4a4d"></path><g id="freepik--Top--inject-379"><path d="M382.21,247.16c-1.06-12.06-1.95-17.93-2.19-26.77-.46-17.16.41-30.48,2.34-39.18,5.12-23.08,2.75-29.06-1.72-32.84,0,0-13.84-7.47-18.1-8.24-3.38-.6-6-1-10.43-2.08-11.08-2.69-23.2,0-27.42.39-2.08.21-4.89-.26-8.65.61-3,.7-14.36,3-14.37,3s-2.39,4.43-8.77,15.83c-4.87,8.7-9.23,17.4-10.1,34.61-1.18,23.71-.8,35.72-1.06,49.33C301.14,265.67,356.84,262,382.21,247.16Z" style="fill:#BA68C8"></path><g id="freepik--Head--inject-379"><path d="M335.35,116.06a19.88,19.88,0,0,1-13.86-1.61c-4.25-2-7.85,2.52-12.38,2a6.11,6.11,0,0,1-4.36-2.4c-.75-.82-1.23-2-2.4-2.23s-2.1.53-3.14.59c-2.71,0-5.59-1.54-6-4.42a4.81,4.81,0,0,0-1.22-3.29c-1.53-1.82-4-2.43-5.64-4.09-4.37-4.56-.78-8.12,1.44-12.82,3-6.4-2.61-9.81,1.48-18.19,1.39-2.83,6.6-4.32,8.26-7,1.36-2.19,1.32-4.05,1.72-6.6.48-3,1.71-4.57,4.63-6.07,3.66-1.87,6.25-1.71,10.15-1.23a18.77,18.77,0,0,0,6.25-.37c8.18-2.52,17.63-4.91,25.72-1.19,5.52,2.35,11.7,6.41,12.44,12.8,8.16-1,11.95,3.71,13.75,11.29.93,2.47,3.73,3.28,5.67,4.78a8.31,8.31,0,0,1,3.34,5.36c.15,1.52-1,3-.3,4.43.74,1.65,2.68,2.43,3.36,4.29s1.21,4.79.2,6.48c-.87,1.45-2.84,2-3.76,3.49-1.15,1.83-.35,4-1.29,5.89-2.56,4.37-7,.22-7.83,7.34-1,4.19-5,5.85-9,6-2.13.11-4.46-.66-6.44.16-4.86,2-8.49,4.43-12-1C341.68,114.69,339.31,114.62,335.35,116.06Z" style="fill:#37474f"></path><path d="M352.05,133.24c0-3.15.6-18.92.6-18.92.08.77,2.5,2.23,5.68,1.8,7.55-1,15.3-16.19,6-21.81-3.89-2.35-9.54-1.45-12.13,4.8-3.46.78-5.57-2.68-5.21-7.29.58-7.35-3.71-12.27-9.79-16.45a62.82,62.82,0,0,1-12.52-12.44C317,69.21,306.19,72.38,303,76c-1.19,4.25-1.25,7.37-.23,14.09.34,2.29-1.12,5.8-1.42,9.11-1.19,13.26,4,24.13,9.47,26.64,3.28,1.5,7,2.54,13.25,2.08l-.34,5.25h0c-.14,2.63.08,3.76-2.49,4.6-1.72.56-5.16,1.27-5.16,1.27s-7.47,7,8.82,9.3c24.31,3.47,37.68-8.22,37.68-8.22s-1.65-.28-5.8-1S352.05,136.38,352.05,133.24Z" style="fill:#b16668"></path><path d="M330,107l-10,3.09a5.13,5.13,0,0,0,6.45,3.63A5.47,5.47,0,0,0,330,107Z" style="fill:#9a4a4d"></path><path d="M329.35,109.29a5.78,5.78,0,0,0-5.8,4.43,5,5,0,0,0,2.91,0,5.37,5.37,0,0,0,3.66-4.32A6.76,6.76,0,0,0,329.35,109.29Z" style="fill:#f28f8f"></path><path d="M305.52,84.55l6.33-3.2a3.4,3.4,0,0,0-4.66-1.65A3.72,3.72,0,0,0,305.52,84.55Z" style="fill:#263238"></path><path d="M335.82,84.55l-6.48-3.11A3.45,3.45,0,0,1,334,79.67,3.78,3.78,0,0,1,335.82,84.55Z" style="fill:#263238"></path><path d="M334.22,92c-.17,1.13-1.51-.66-3.41-.58s-3,1.72-3.47.86,1.32-2.89,3.21-3.1C332.73,89,334.39,90.9,334.22,92Z" style="fill:#263238"></path><path d="M306.61,91.83c.1,1.14,1.54-.57,3.43-.39s2.88,1.89,3.42,1.06-1.16-3-3-3.28C308.26,88.86,306.5,90.69,306.61,91.83Z" style="fill:#263238"></path><path d="M311,102.59l8.81,3.37,2.3-16.84C319,89.12,315,94.5,311,102.59Z" style="fill:#9a4a4d"></path><path d="M324,127.93c11.25-1,22.05-4.63,24.62-9.73,0,0,0,5.59-4.59,8.24-6.43,3.7-20.29,5.46-20.29,5.46Z" style="fill:#9a4a4d"></path></g></g><g id="freepik--Girl--inject-379"><g id="freepik--bottom--inject-379"><path d="M256.56,291c-1.74,2.11-3,3.85-5.62,7.28-1,1.35-3.16,4.26-4.84,6.43-5,6.54-11.41,15.22-11.41,15.22s2,11.3,12.55,12.76c0,0,25.07-17.8,32.57-23.86C276.1,306.86,258.24,292.71,256.56,291Z" style="fill:#b16668"></path><path d="M261.55,322.43s-2.93-.35-9-6.65-6.63-10.8-6.63-10.8c-5,6.51-11.2,14.95-11.2,14.95s2,11.3,12.55,12.76C247.24,332.69,254,327.89,261.55,322.43Z" style="fill:#f0f0f0"></path><path d="M226.24,322l14.16,46,.13.7c-.94.93-2.27,1.72-4.87.63-3.44-1.44-10.3-8.32-13-16s0-15.71.31-17.85c.49-3.75-2.18-8.1-1.92-9.6C222.28,323.26,226.24,322,226.24,322Z" style="fill:#263238"></path><path d="M250.69,333.38a11.66,11.66,0,0,1-2.49,2.26,7.43,7.43,0,0,0-1.94,3.77,38.94,38.94,0,0,0-1,10.71,83,83,0,0,0,.93,10.08A6.86,6.86,0,0,1,240.4,368c-1.69-.45-5.24-1.88-9.18-6.58-4.6-5.48-6.72-9.54-7.07-16.42-.24-4.8,1.25-7.32,1-12.11-.11-1.93-2.28-6.5-1.21-9.65,1.74-2.61,4.92-4,6.72-4.78a28.06,28.06,0,0,0,4.05-2.15c1.33-.84,1.7-1.77,3-2.48a1,1,0,0,1,1.44.16l-1.32,1.78c-1.45,2.06.3,5.68,1.93,7.6,1.43-1,1.83-1.7,3-1.57,1.48.15,2.79,1.68,3.75,2.72a28.63,28.63,0,0,1,3.69,5.44,4.16,4.16,0,0,1,.77,2.73A2.22,2.22,0,0,1,250.69,333.38Z" style="fill:#455a64"></path><path d="M245.74,348.55a5.29,5.29,0,0,0-.55-1.43,8.49,8.49,0,0,0-2-2.57,13.85,13.85,0,0,0-5.83-3.28c-.44-.13-.94.8-.43,1a14.06,14.06,0,0,1,5.19,3.23,21.75,21.75,0,0,1,1.82,1.9,5.3,5.3,0,0,1,1.24,2.38A1.39,1.39,0,0,0,245.74,348.55Z" style="fill:#fafafa"></path><path d="M245.77,343.47a4.2,4.2,0,0,0-.44-1.38,6.77,6.77,0,0,0-.89-1.42,13,13,0,0,0-1.21-1.14,24.34,24.34,0,0,0-2.44-1.84c-.74-.48-2.35-1.38-2.47-.58a.38.38,0,0,0,0,.15c.06.72,1,1.06,1.57,1.39a22.75,22.75,0,0,1,2.41,1.75,15.72,15.72,0,0,1,2.08,2,6.36,6.36,0,0,1,.8,1.19,1.73,1.73,0,0,1,.22,1C245.69,344.53,245.84,343.82,245.77,343.47Z" style="fill:#fafafa"></path><path d="M246.48,339.88A3.46,3.46,0,0,0,246,337a8.2,8.2,0,0,0-1.61-2.24,16,16,0,0,0-2.51-2.07c-.31-.21-.62-.42-.95-.6l-.24-.13-.13-.06-.14-.06-.09-.05a2.23,2.23,0,0,0-.44-.13.7.7,0,0,0-.45,0,.48.48,0,0,0-.26.48.5.5,0,0,0,.06.24.05.05,0,0,0,0,0l.06.07a1.43,1.43,0,0,0,.14.2,2.37,2.37,0,0,0,.37.34l.14.1c.28.18.58.32.87.48l.16.1c.05,0,.12.06.18.1a6.78,6.78,0,0,1,.86.52c.14.1.28.2.41.31l.19.16.06.07.09.07.11.1.21.19a4.17,4.17,0,0,1,.37.36,12.09,12.09,0,0,1,1.46,1.72,11.59,11.59,0,0,1,.62,1.08,4.17,4.17,0,0,1,.52,1.66C246.13,340.18,246.45,340,246.48,339.88Z" style="fill:#fafafa"></path><path d="M240.53,368.66c5-.83,7.4-4.22,6.1-10.11s-8.32-11.87-12.25-13.13-7.7-1.21-10,2.25c0,0,.22,7.33,7,15.12C235.86,368,240.53,368.66,240.53,368.66Z" style="fill:#fafafa"></path><path d="M307.39,192.32c8.74,21.39,17.11,42.78,20.47,65.67,2,13.41-1.88,16.28-11.58,24.66-7.46,6.45-49.69,36.53-49.69,36.53s-14.83-8.87-16.09-21.34c12.88-17.13,22.11-28,35.61-36.67L245,196.51Z" style="fill:#455a64"></path><path d="M266.59,319.18s4.42-3.15,10.61-7.6h0V274.1l-5.12-1.82A132.76,132.76,0,0,0,263,282l4.28,5.67a157.3,157.3,0,0,0-1.36,17.25C265.92,308.65,266.25,314.94,266.59,319.18Z" style="fill:#37474f"></path><path d="M273.06,341.51c.28,2.72.64,4.83,1.23,9.12.22,1.69.8,5.24,1.17,7.95,1.1,8.19,2.79,18.82,2.79,18.82s9.42,6.54,17.9.06c0,0,5-30.34,5.94-39.94C298.08,338.77,275.46,341.52,273.06,341.51Z" style="fill:#b16668"></path><path d="M298.92,360.07s-2.31,1.84-11.08,1.74-12.34-2.88-12.34-2.88a172.29,172.29,0,0,1,1.2,18s11,7,19.45.54C296.15,377.46,297.49,369.28,298.92,360.07Z" style="fill:#f0f0f0"></path><path d="M273.75,384.84l42.66,22.28.59.4c0,1.32-.37,2.82-3,3.9-3.44,1.44-13.16,1.48-20.52-1.94S282.35,398.41,281,396.71c-2.32-3-7.3-4.15-8.18-5.39C271.89,388.57,273.75,384.84,273.75,384.84Z" style="fill:#263238"></path><path d="M299.07,375.49a11.85,11.85,0,0,1-.15,3.36,7.41,7.41,0,0,0,1.32,4,38.77,38.77,0,0,0,6.89,8.28,82.56,82.56,0,0,0,7.8,6.43,6.84,6.84,0,0,1,1.48,9.54c-1.5.89-5,2.4-11.13,1.9-7.13-.58-11.51-1.93-16.65-6.53-3.58-3.2-4.32-6-7.92-9.21-1.45-1.27-6.22-2.94-7.71-5.92a13.53,13.53,0,0,1,1.05-7.65,16.9,16.9,0,0,0,1.2-4.09c.25-2-.15-3.25.25-4.66.09-.31.48-.89,1-.93l.09,1.8c.44,2.48,5.14,4.19,7.66,4.38.25-1.74.08-2.5,1-3.26,1.15-.94,3.15-.8,4.57-.75a28.44,28.44,0,0,1,6.46,1.21,4.11,4.11,0,0,1,2.48,1.36A2.34,2.34,0,0,1,299.07,375.49Z" style="fill:#455a64"></path><path d="M306.43,389.84a5.3,5.3,0,0,0-1.39-.63,8.52,8.52,0,0,0-3.21-.44,13.9,13.9,0,0,0-6.44,1.78c-.4.22-.1,1.22.37,1a14.2,14.2,0,0,1,6-1.36,25.4,25.4,0,0,1,2.62.06,5.85,5.85,0,0,1,2.68.83A1.56,1.56,0,0,0,306.43,389.84Z" style="fill:#fafafa"></path><path d="M302.88,386.21a4.6,4.6,0,0,0-1.28-.67,6.51,6.51,0,0,0-1.64-.37,11.51,11.51,0,0,0-1.66,0,23.57,23.57,0,0,0-3,.41c-.87.18-2.64.67-2.17,1.33a.94.94,0,0,0,.1.1c.56.47,1.49,0,2.1-.12a22.34,22.34,0,0,1,2.95-.45,16.29,16.29,0,0,1,2.88-.05,7.49,7.49,0,0,1,1.41.28,1.83,1.83,0,0,1,.85.55C303.57,387,303.18,386.42,302.88,386.21Z" style="fill:#fafafa"></path><path d="M300.85,383.17a3.41,3.41,0,0,0-2.36-1.77,8.59,8.59,0,0,0-2.73-.46,16.26,16.26,0,0,0-3.24.31c-.36.07-.73.14-1.09.24l-.26.08-.14,0-.14.06a.19.19,0,0,0-.1,0,2.19,2.19,0,0,0-.4.21.78.78,0,0,0-.33.32.49.49,0,0,0,.15.52.61.61,0,0,0,.22.13h.13a1.09,1.09,0,0,0,.25,0,1.69,1.69,0,0,0,.5,0l.16,0c.33-.07.64-.18,1-.27l.18,0,.2-.07a6.64,6.64,0,0,1,1-.23l.5-.07.25,0h.36l.28,0h.52a11.76,11.76,0,0,1,2.25.19,10.79,10.79,0,0,1,1.2.34,4,4,0,0,1,1.53.81C300.82,383.62,300.93,383.28,300.85,383.17Z" style="fill:#fafafa"></path><path d="M317,407.52c2.92-4.13,2.2-8.23-2.9-11.45s-14.28-2.42-18-.52-6.27,4.63-5.41,8.67c0,0,5.37,5,15.65,5.68C313.23,410.35,317,407.52,317,407.52Z" style="fill:#fafafa"></path><path d="M243.91,193.32c-.16,6.93-3.06,16.46-1.48,31S258,262.72,262.31,270.2s8.4,16.14,8.4,16.14-2.55,22.65-.88,34.25S274,351.53,274,351.53a38.77,38.77,0,0,0,26.8,1.72s4.54-32.49,6.36-48.32c1.91-16.59,4.54-20.91-1.24-41.32-5.4-19-11.18-29.37-11.18-29.37s13.23-21.09,12.61-41.92Z" style="fill:#455a64"></path><path d="M271.83,272.38c-2.51-4.79-5.65-10.75-9.63-18.74-12.44-25-13.1-37.52-9.88-56.25l-1.34-.23c-3.27,19-2.61,31.79,10,57.09,4,8,7.13,14,9.65,18.77,4.94,9.39,7,13.28,6.94,16.3-1.66,10.56-1.66,25.65,0,44.84.56,6.5,1.18,12.91,1.85,19.31a13.2,13.2,0,0,0,1.31.33c-.69-6.57-1.23-13.06-1.81-19.75-1.65-19.09-1.65-34.07,0-44.61C279,286,276.89,282,271.83,272.38Z" style="fill:#37474f"></path><path d="M250.89,224.36l-.23-1.34c8.55-1.52,12.59-9.88,11.7-24.17l1.35-.08C264.91,217.82,257.4,223.2,250.89,224.36Z" style="fill:#37474f"></path><path d="M294.78,234.24c-7.17-10.38-18.41-9.82-25.78-9.41,18.61-6.42,28.84,5.81,28.84,5.81a33.37,33.37,0,0,0,11.24-14c.41,10-9.3,17-9.3,17s7.52,28.76,8.61,39.93C305.66,262.17,300.17,247,294.78,234.24Z" style="fill:#37474f"></path></g><g id="freepik--top--inject-379"><path d="M241.17,182.43c-1.12-12-5.2-28.7-5.72-31.71-1-6.14-.34-16,7.65-18.82s12.34-4.1,12.34-4.1,20.75-1.63,24.19-1.63c6,0,11.94.39,11.94.39,3.55,2.33,10.75,8.79,13.07,30.77.56,5.32,2.14,16.33,4.52,32.15a5,5,0,0,1-1.33,3.88c-10.33,12-51,16.25-64.44,7.38-1.31-.87-2-1.41-1.93-4A76.91,76.91,0,0,0,241.17,182.43Z" style="fill:#BA68C8"></path><path d="M241.17,182.43c-1.12-12-5.2-28.7-5.72-31.71-1-6.14-.34-16,7.65-18.82s12.34-4.1,12.34-4.1,20.75-1.63,24.19-1.63c6,0,11.94.39,11.94.39,3.55,2.33,10.75,8.79,13.07,30.77.56,5.32,2.14,16.33,4.52,32.15a5,5,0,0,1-1.33,3.88c-10.33,12-51,16.25-64.44,7.38-1.31-.87-2-1.41-1.93-4A76.91,76.91,0,0,0,241.17,182.43Z" style="fill:#fff;opacity:0.30000000000000004"></path><g id="freepik--head--inject-379"><path d="M274.08,116.09c4.68-3.28,8.21-7.83,11.95-12.09,3.36-3.82,7.72-6,10.35-10.38,4.73-8,5.83-19.53-1.54-26.3-5-4.6-8.51-6.32-18-5.78-6.11-2.8-7.42-2.9-11.6-3.14a32.73,32.73,0,0,0-16.85,4.11c-4.75,2.88-8.76,8.27-10.8,13.4a32,32,0,0,0,6.48,33.29c2.44,2.69,7.22,6.5,10.69,11.13C255.32,121.07,269.32,119.43,274.08,116.09Z" style="fill:#263238"></path><path d="M247.22,57.06,247,57l-.21-.06a7.46,7.46,0,0,0-5.73.76A14.32,14.32,0,0,1,238,59.48a10.08,10.08,0,0,1-4-.15,8.68,8.68,0,0,0-5.4,1,5.46,5.46,0,0,0-2.81,4.54,7.78,7.78,0,0,1,0,2.55c-.48,1.44-2.25,1.9-3.51,2.77A5.49,5.49,0,0,0,221,77.69a12.85,12.85,0,0,1,1.62,2.07c.65,1.39.1,3-.5,4.45s-1.26,3-.79,4.45c.83,2.57,4.38,3,6,5.16.87,1.13,1.11,2.62,1.8,3.87a6.2,6.2,0,0,0,4.42,3,5.29,5.29,0,0,0,3.33-.43,23,23,0,0,1,2.91-1.94,7.64,7.64,0,0,1,2.9-.34,6.66,6.66,0,0,0,2.88-.41,4.07,4.07,0,0,0,1.9-2.27c.35-1,.36-2,.63-3a4,4,0,0,1,1.61-2.41c1.27-.78,2.91-.45,4.37-.79,2.39-.55,4-2.81,5-5a3.59,3.59,0,0,0,.42-1.41c0-1.4-1.45-2.35-1.88-3.68a5.45,5.45,0,0,1,.24-3.11,16,16,0,0,0,.82-5.38,17.55,17.55,0,0,0-.34-2,2.69,2.69,0,0,0-.42-.87,7.78,7.78,0,0,0-1.26-1.49c-1-.92-2.12-1.69-3.09-2.64-.43-.42-.79-.9-1.22-1.32a3.19,3.19,0,0,1-.7-1.08,34.69,34.69,0,0,0-1-1.49,7.88,7.88,0,0,0-1.05-1.11A7.58,7.58,0,0,0,247.22,57.06Z" style="fill:#263238"></path><path d="M295.87,94.31c.34,3.09.89,4.29,1.28,9.29s-.64,9.33-3,12.74c-2.73,3.93-8,6.34-13.3,6.9l-1.27.11.14,5.29c2.73,2.13,7.33,7.18-.83,8.9-9.72,2.05-19.6-3-23.8-7.85l-1-19.79s-2.25,2.46-6.18.33c-2.68-1.46-5.73-5.3-4.43-9.34a5.57,5.57,0,0,1,6.14-3.74c3.22.62,3.8,4.1,3.95,6.85a14.31,14.31,0,0,0,.25,2.34,3.19,3.19,0,0,0,1.63,2.52c1.4.68,3.18.21,3.35-1-1.24.74-2.36-.25-2.5-1.5-.24-2,1.17-3.21,2.08-4.8a4.18,4.18,0,0,0-2.47-6,14.34,14.34,0,0,0,5-4.24c1.45-2.22,2.14-5.5,2.57-8.11.16-1-.05-2.56.42-3.34s1.43-.9,2.07-1.4a9.33,9.33,0,0,1,2.25-1.48,11.07,11.07,0,0,1,11.4,1.67c6.93-7.46,12.89-2.69,14.72,4.84A67.42,67.42,0,0,1,295.87,94.31Z" style="fill:#b16668"></path><path d="M273.48,106.79l7.36,1.65a3.7,3.7,0,0,1-4.43,3A3.94,3.94,0,0,1,273.48,106.79Z" style="fill:#9a4a4d"></path><path d="M273.72,107.94a2.4,2.4,0,0,0-.28,0,3.91,3.91,0,0,0,3,3.45,3.44,3.44,0,0,0,1.66,0A4.48,4.48,0,0,0,273.72,107.94Z" style="fill:#f28f8f"></path><polygon points="280.16 92.96 281.47 104.57 288.24 102.47 280.16 92.96" style="fill:#9a4a4d"></polygon><path d="M293.58,87.78l-5.8-2.61a3.06,3.06,0,0,1,4.11-1.67A3.34,3.34,0,0,1,293.58,87.78Z" style="fill:#263238"></path><path d="M266.45,89,272.12,86a3.1,3.1,0,0,0-4.27-1.39A3.39,3.39,0,0,0,266.45,89Z" style="fill:#263238"></path><path d="M268.18,95.65c.2,1,1.33-.65,3-.65s2.74,1.42,3.15.63-1.31-2.54-3-2.65C269.39,92.85,268,94.64,268.18,95.65Z" style="fill:#263238"></path><path d="M292.9,94.34c0,1-1.4-.45-3.09-.2s-2.5,1.81-3,1.09.92-2.71,2.59-3.07C291.3,91.75,293,93.31,292.9,94.34Z" style="fill:#263238"></path><path d="M279.55,123.32a37,37,0,0,1-15.72-3.21,16.93,16.93,0,0,1-6.17-5.28,14.67,14.67,0,0,0,3.79,6.29c6,5.39,18.18,5,18.18,5Z" style="fill:#9a4a4d"></path></g></g></g><g id="freepik--woman-arms--inject-379"><path d="M246.9,239.94c1.19,2.78,8.7.12,14.27,1.48s10.84,1.17,14.24,1.17,3.14,2.74-.27,4.9c-3.59,2.27-10.65,1.53-11.56,2.11s-3.49,3.17,1.9,5.2,12.25,4,14.33,7.27-13.89,9.73-19.15,5.64-5.41-3.28-8.26-6.12c-8.92-8.93-8.21-17.8-6.67-24.68Z" style="fill:#9a4a4d"></path><path d="M356.39,165l-11.21,64.21c-10.68,7.74-22.39,14-33.41,20-5.31,2.58-9.62,5.59-15.39,7-3.79.87-9.14-1-12.71-2.11-7.41-1.81-13.83-1.2-21.26-3-3.12-.76-2.25,4,.79,6.36s11.49,2.44,12,6.51a1.23,1.23,0,0,1-.9.63c-14.71,2.38-18.43-1.12-21.91-3a6.94,6.94,0,0,0,.23,4.28c.64,1.73,2.22,2.21,3.05,3.86s0,2.54,1.37,3.71c.66.37,1.29.77,1.94,1.15,1.56.7,2.09,2.29,2.56,3.81,1.17,3.05,3.48,4.3,6.5,5.15,5.73,1.6,15,1.88,16.2,1.81,9.43-.58,15.28-4.92,22.91-7.88,5.25-2,46.68-16.55,56.76-21.73s9.88-9,12.91-18.82,10.92-45.24,12.9-56,2.73-26.37-9.09-32.6l-11.81-6.24S358.55,152.58,356.39,165Z" style="fill:#b16668"></path></g><g id="freepik--girl-arms--inject-379"><path d="M352.05,133.24l.18-7.07s1.57,0,2.41,0a12.52,12.52,0,0,1,11,7.53c2.92,6.05,7.86,13.51,8.64,17.35s-.29,7.25-1.64,7.66-2.79-1.4-2.84-2.79-.51-4.89-.51-4.89,0,4.24-1,6.11-3.88,6.23-5.53,7.6-2.34,1.51-3.2.48c-.82,1-1.29,3.08-2.16,3.78a2.13,2.13,0,0,1-3-.68,2.43,2.43,0,0,1-2.49-1.89c-.69-2.09.68-5.23,1.24-7.22S352.05,133.24,352.05,133.24Z" style="fill:#9a4a4d"></path><path d="M240.34,133.35c-11.61,7.4-10.08,27.45,4.61,32.86,10.65,3.92,23.16,8.16,36.79,10.45,15.87,2.66,16.54,3.25,23,1.28,12.73-3.86,37.93-15.61,40-16.3s11-.93,15.68-4a39.19,39.19,0,0,1,10.25-4.88c1.35-.51,3.06-1.09,3.61-1.86s-.29-3.23-1.59-3.32c1-.37,2-.66,2.23-1.4s-.82-3.15-1.66-3.63a5.78,5.78,0,0,0-1.59-.63s.61-2.25-2.77-3.44a5.34,5.34,0,0,0-.7-3.94c-.8-1.37-1.49-2-4-1.88a14.92,14.92,0,0,0-3.91.68,3.54,3.54,0,0,0,1.26-2.49c-.07-1.38-1.35-.68-2.53-.68s-4,.14-5.05.09-1.91.75-4,2-5,3.13-5.54,3.86-1.78,2.9-3.53,5.93c-1.3,2.23-2.51,2.89-7.22,4.33-8.36,2.57-35.5,8.59-35.5,8.59L260.76,142.9S250.81,133.35,240.34,133.35Z" style="fill:#b16668"></path><path d="M354,130.28a3.35,3.35,0,0,0-1.82.69l-1.65,1.09c-1.12.71-2.23,1.41-3.32,2.17-.54.37-1.08.74-1.6,1.14a4.45,4.45,0,0,0-1.33,1.37c-.69,1.11-1.33,2.27-2,3.42a24.47,24.47,0,0,1-2.1,3.41,8.26,8.26,0,0,1-3.45,2.13c-2.5.93-5.06,1.62-7.61,2.32q-7.69,2-15.43,3.69T298.18,155l15.41-3.76c5.13-1.26,10.28-2.48,15.38-3.84,2.55-.66,5.11-1.34,7.57-2.23a7.73,7.73,0,0,0,3.24-2,27.15,27.15,0,0,0,2.1-3.29c.68-1.14,1.34-2.28,2.07-3.4a3.51,3.51,0,0,1,.65-.8c.26-.23.52-.43.79-.63.54-.39,1.09-.76,1.65-1.12,1.11-.71,2.26-1.38,3.4-2l1.69-1A3.42,3.42,0,0,1,354,130.28Z" style="fill:#9a4a4d"></path><path d="M360.31,133.36s-3.2,1-4,1.32-3,1.86-4.55,2.07a2.07,2.07,0,0,1-2.12-.69s1,.52,3-.33,2.31-2.29,2-3.13c.64.29.77,1.79.77,1.79S359.06,133,360.31,133.36Z" style="fill:#9a4a4d"></path><path d="M368.94,138.5c-1.86-.47-6.08.19-6.08.19s3.44-1.5,6.18-1.07Z" style="fill:#9a4a4d"></path><path d="M371.71,141.94a8.69,8.69,0,0,0-2.88.19c-1.77.38-3.28.77-3.28.77a17.24,17.24,0,0,1,3.87-1.44,6.6,6.6,0,0,1,2.32-.13Z" style="fill:#9a4a4d"></path><path d="M372.73,147.6c-1.51.09-5,.55-6.26.77a25.74,25.74,0,0,1,5.67-1.33,3.55,3.55,0,0,1,1.78.12Z" style="fill:#9a4a4d"></path></g></g></g></svg>